<?xml version="1.0" encoding="UTF-8" standalone="no"?>
<!-- Created with Inkscape (http://www.inkscape.org/) -->

<svg
   xmlns:dc="http://purl.org/dc/elements/1.1/"
   xmlns:cc="http://creativecommons.org/ns#"
   xmlns:rdf="http://www.w3.org/1999/02/22-rdf-syntax-ns#"
   xmlns:svg="http://www.w3.org/2000/svg"
   xmlns="http://www.w3.org/2000/svg"
   xmlns:sodipodi="http://sodipodi.sourceforge.net/DTD/sodipodi-0.dtd"
   xmlns:inkscape="http://www.inkscape.org/namespaces/inkscape"
   width="210mm"
   height="297mm"
   viewBox="0 0 744.09448819 1052.3622047"
   id="svg4149"
   version="1.1"
   inkscape:version="0.91 r13725"
   sodipodi:docname="logo.svg"
   inkscape:export-filename="/home/ryan/logo-icon.png"
   inkscape:export-xdpi="6.1297498"
   inkscape:export-ydpi="6.1297498">
  <defs
     id="defs4151" />
  <sodipodi:namedview
     id="base"
     pagecolor="#ffffff"
     bordercolor="#666666"
     borderopacity="1.0"
     inkscape:pageopacity="0.0"
     inkscape:pageshadow="2"
     inkscape:zoom="0.35"
     inkscape:cx="-30.594956"
     inkscape:cy="630.28571"
     inkscape:document-units="px"
     inkscape:current-layer="layer1"
     showgrid="false"
     inkscape:window-width="1920"
     inkscape:window-height="953"
     inkscape:window-x="-8"
     inkscape:window-y="1130"
     inkscape:window-maximized="0" />
  <metadata
     id="metadata4154">
    <rdf:RDF>
      <cc:Work
         rdf:about="">
        <dc:format>image/svg+xml</dc:format>
        <dc:type
           rdf:resource="http://purl.org/dc/dcmitype/StillImage" />
        <dc:title></dc:title>
      </cc:Work>
    </rdf:RDF>
  </metadata>
  <g
     inkscape:label="Layer 1"
     inkscape:groupmode="layer"
     id="layer1">
    <path
       style="fill:#1a1a1a"
       d="m 361.36594,383.81374 c -0.21364,-6.89949 0.0582,-10.49694 0.79514,-10.49694 0.6162,0 1.12022,-1.74377 1.12022,-3.87499 0,-3.54003 -0.28636,-3.92905 -3.31314,-4.50002 -1.82216,-0.34375 -5.28318,-0.62501 -7.69102,-0.62501 -10.03776,0 -38.00237,-12.31416 -54.19822,-23.86606 -10.36972,-7.39632 -23.64672,-19.52693 -29.91887,-27.33556 -6.39281,-7.95881 -15.89973,-25.50882 -19.39214,-35.79837 -3.27561,-9.65067 -6.06478,-22.45861 -6.8788,-31.58737 -0.6779,-7.60296 -0.91029,-8.19279 -3.88002,-9.84742 -3.78322,-2.10791 -3.37917,-3.13572 0.56605,-1.44021 3.20444,1.37715 3.30422,1.32133 4.2444,-2.37501 0.41517,-1.63253 0.26039,-2.74999 -0.38093,-2.74999 -0.59424,0 -1.08045,0.44999 -1.08045,1 0,3.862 -11.17197,-3.27794 -14.04767,-8.97773 -2.51088,-4.97691 -2.34336,-5.52954 0.93818,-3.09485 6.01738,4.4645 13.80869,1.03004 14.88841,-6.5629 0.47507,-3.34019 0.15765,-4.53797 -1.65584,-6.24844 -2.65113,-2.50062 -6.72559,-2.74561 -9.0591,-0.54465 -1.51448,1.42857 -1.666,1.42495 -1.666,-0.0399 0,-3.09014 4.57519,-10.06251 9.37813,-14.29191 4.14252,-3.64781 4.97711,-4.02593 5.80534,-2.63002 0.78243,1.31867 1.13558,1.37346 1.84772,0.2867 0.50254,-0.76706 0.41845,-1.61283 -0.19615,-1.97112 -0.59211,-0.34515 1.88727,-2.7049 5.50966,-5.2439 3.6224,-2.53899 7.35229,-5.6828 8.28876,-6.98626 9.38586,-13.06388 9.95233,-14.60472 7.23301,-19.67391 -1.48821,-2.77426 -8.63905,-6.98277 -11.89153,-6.99855 -1.16622,-0.006 -3.48691,0.66194 -5.15714,1.48354 -1.67024,0.82161 -3.66533,1.49383 -4.43366,1.49383 -0.76831,0 -2.44164,1.38382 -3.71844,3.07513 -1.83447,2.42998 -2.20957,4.01196 -1.78781,7.54058 0.64894,5.43102 2.98849,8.05922 8.39678,9.43282 5.39716,1.37079 9.01702,-0.29637 11.83387,-5.45009 2.11245,-3.86504 2.1133,-3.93527 0.0901,-7.5 -1.24923,-2.2007 -2.96855,-3.72246 -4.42634,-3.91776 -2.78144,-0.37261 -8.74845,3.30191 -8.74845,5.38742 0,0.78755 -0.47711,1.43191 -1.0602,1.43191 -1.74129,0 -1.22263,-1.42954 1.74403,-4.80721 3.35764,-3.82282 7.54512,-4.21075 12.13993,-1.12469 2.40252,1.6136 3.07925,2.8433 3.07925,5.5957 0,5.31408 -2.75706,8.73582 -12.70714,15.77071 -18.24501,12.89957 -27.35839,23.14202 -27.64092,31.0655 -0.0584,1.64998 -0.36929,2.37627 -0.68979,1.61394 -1.44314,-3.43201 3.85989,-18.0258 9.89963,-27.24361 4.25036,-6.48672 6.7536,-15.52564 6.7536,-24.38626 0,-10.76794 -2.05637,-17.01542 -7.65901,-23.26887 -1.61871,-1.80663 -2.94301,-3.70152 -2.94301,-4.21082 0,-0.50932 5.12872,-6.977 11.39717,-14.37263 6.26844,-7.39563 13.41864,-16.075759 15.88924,-19.289158 5.18384,-6.742387 14.84588,-24.866488 18.30808,-34.342582 5.40183,-14.784604 11.66794,-23.97726 15.4186,-22.61974 1.32939,0.481191 1.59943,0.966333 0.79802,1.43356 -2.06262,1.202359 -2.8194,6.046083 -1.23301,7.891123 0.99509,1.157257 1.03189,1.445625 0.11842,0.928001 -1.87699,-1.063617 -1.67417,1.452124 0.33513,4.15794 1.94218,2.615441 8.95351,6.209117 12.11406,6.209117 3.41194,0 9.49592,-2.72049 11.6952,-5.229531 1.09454,-1.24875 3.23265,-5.420468 4.75129,-9.270465 3.29585,-8.355771 10.00331,-19.321179 15.02655,-24.56556 9.12282,-9.524531 21.21918,-13.5923426 37.27316,-12.5343609 11.90564,0.784596 18.13825,3.3726729 25.86976,10.7423819 4.7568,4.534189 20.95414,26.652477 20.95414,28.613998 0,1.915832 7.14448,7.046681 10.60201,7.613893 4.28681,0.703261 10.07191,-0.508099 10.07191,-2.108962 0,-0.602095 0.43436,-1.469717 0.9651,-1.928059 0.56075,-0.484162 0.64566,-0.309572 0.2025,0.416674 -0.98492,1.614341 1.69092,1.653801 3.39127,0.05002 1.91079,-1.802245 1.53093,-3.24743 -0.44657,-1.699381 -0.94537,0.740027 -0.50508,-0.341476 0.97836,-2.40333 2.22356,-3.090609 2.53324,-4.287966 1.76364,-6.819122 -1.57206,-5.170017 -4.94678,-7.171916 -10.97382,-6.509527 -6.21204,0.682711 -5.77353,-0.299154 0.63188,-1.414804 9.63256,-1.677761 14.74518,3.262306 26.23288,25.347464 4.23444,8.14071 8.74146,16.015709 10.01561,17.49999 1.27416,1.48429 3.08169,3.823713 4.01669,5.198709 2.71336,3.990204 14.33116,16.82323 25.24422,27.884778 5.53956,5.61495 10.23636,10.65301 10.43727,11.19572 0.20091,0.54271 -0.10613,1.53409 -0.68225,2.2031 -6.0195,6.99036 -9.05751,19.15156 -7.17364,28.71638 0.70419,3.57501 1.84274,7.76681 2.53008,9.31512 0.68733,1.54828 1.24976,3.04276 1.24976,3.32103 0,0.27828 3.02094,4.86146 6.71308,10.1849 7.51778,10.83909 10.28852,16.68312 10.16945,21.4492 l -0.0806,3.22975 -1.24703,-2.99999 c -3.75437,-9.0317 -8.767,-13.87433 -25.37314,-24.51252 -6.27469,-4.0197 -11.99977,-8.01853 -12.72241,-8.88628 -1.04251,-1.25196 -0.76653,-1.2159 1.33669,0.17466 5.43948,3.59632 8.36245,3.44517 13.46721,-0.69642 2.513,-2.03882 2.96592,-3.1707 2.96592,-7.4123 0,-3.95959 -0.55406,-5.56529 -2.65052,-7.6816 -8.91533,-8.99972 -22.51654,-6.58898 -24.05955,4.26445 -0.40267,2.83207 -0.204,4.25 0.59552,4.25 0.65985,0 1.19981,0.89703 1.19981,1.99338 0,2.7807 10.7197,12.73716 19.73427,18.32923 6.35495,3.94222 12.91919,9.73109 17.95261,15.83202 2.39774,2.90631 4.71682,10.01333 4.06585,12.45999 -0.74722,2.80813 -4.31427,4.5414 -7.652,3.71814 -2.66004,-0.65613 -4.12279,-5.75515 -2.25864,-7.87371 1.95979,-2.22733 3.03503,-1.74905 2.81408,1.25177 -0.14472,1.96456 0.36483,2.82035 1.85069,3.10874 5.40406,1.04884 5.29498,-7.99331 -0.11194,-9.27328 -5.69796,-1.34888 -10.03981,4.72914 -7.41867,10.38498 4.32213,9.32601 14.83615,7.51786 17.75869,-3.05405 0.85695,-3.10023 0.88994,-3.02418 0.40193,0.92741 -0.29241,2.36754 -1.49054,6.19253 -2.6626,8.50001 -2.309,4.54581 -10.76994,11.30195 -12.72591,10.16174 -0.77702,-0.45296 -1.06095,-0.0384 -0.7978,1.16519 0.58758,2.68777 5.45347,2.09405 10.22872,-1.24807 l 3.87927,-2.71507 -3.1806,3.25186 c -3.81291,3.89828 -6.33088,5.27947 -10.18949,5.58916 -2.05668,0.16507 -3.03674,-0.30643 -3.4061,-1.63884 -1.00211,-3.61437 -2.32046,-1.81989 -2.11552,2.8794 0.19262,4.41641 0.13718,4.32862 -0.79028,-1.24999 -0.64833,-3.90036 -0.62542,-7.01457 0.0657,-8.89922 1.30776,-3.56695 1.30776,-3.6008 0,-3.6008 -0.58311,0 -1.06741,0.78752 -1.07642,1.75002 -0.0138,1.49555 -0.16561,1.53189 -1.04398,0.24999 -1.29609,-1.89178 -1.35674,-3.29091 -0.11101,-2.56475 0.52194,0.3043 1.2538,-0.19567 1.62614,-1.11103 0.37246,-0.91539 0.1144,-1.99238 -0.57346,-2.39335 -0.68786,-0.40095 -0.95747,-1.44943 -0.59933,-2.32995 0.37765,-0.92816 0.10845,-1.60091 -0.64057,-1.60091 -0.72868,0 -1.33904,-1.41702 -1.40001,-3.25 -0.13899,-4.18423 -1.14522,-7.83209 -2.51765,-9.12659 -0.59732,-0.56288 -1.08554,-1.87193 -1.08554,-2.90897 0,-2.21543 -6.06467,-14.02548 -8.4745,-16.50288 -0.9157,-0.94137 -2.78993,-3.44161 -4.16501,-5.55608 -3.44003,-5.28982 -7.45013,-8.88907 -9.19873,-8.25618 -0.80342,0.2908 -1.40996,0.20741 -1.34794,-0.1853 0.41316,-2.61415 -0.94337,-4.56996 -7.2946,-10.51705 -3.936,-3.68558 -9.06472,-7.90598 -11.39716,-9.37866 -2.33244,-1.47271 -4.39984,-3.04678 -4.59418,-3.49797 -0.19444,-0.45117 -0.78147,-0.82032 -1.30468,-0.82032 -0.52321,0 -3.46527,-1.50211 -6.53794,-3.338 -19.61552,-11.72021 -41.01696,-17.18576 -67.0783,-17.13057 -23.95281,0.0508 -43.34928,4.88996 -63.61206,15.87065 -27.27272,14.77956 -48.43084,38.80872 -57.85549,65.70643 -7.34327,20.9577 -9.0553,38.76207 -5.73877,59.68309 4.9682,31.34103 25.33616,61.51071 55.11264,81.63496 24.00306,16.22229 59.76163,23.81213 90.36307,19.17974 5.9665,-0.90318 11.93013,-2.03016 13.25251,-2.50443 1.32249,-0.47424 2.77668,-0.87049 3.2315,-0.88055 2.31358,-0.051 10.30515,-2.7708 10.30515,-3.50703 0,-0.76398 -0.87848,-0.62004 -6.3612,1.04234 -0.87467,0.2652 0.0796,-0.96963 2.12041,-2.74408 l 3.7107,-3.22627 -3.3336,0.56073 c -2.91703,0.49063 -3.26595,0.31652 -2.79193,-1.39316 0.59095,-2.13154 2.01067,-2.59739 2.62432,-0.86109 0.49787,1.4088 7.93656,1.62373 9.37101,0.27077 0.75338,-0.7106 -0.29474,-1.08432 -3.3585,-1.19755 -2.44939,-0.0904 -4.62354,-0.32494 -4.83135,-0.52091 -0.20769,-0.19599 1.89915,-1.12811 4.68185,-2.07143 2.78282,-0.94331 6.72942,-2.59809 8.7703,-3.67729 2.04089,-1.07919 5.69552,-2.87794 8.12136,-3.99719 5.40501,-2.49374 22.67654,-15.93187 28.45558,-22.13976 3.96644,-4.26081 12.63962,-15.6468 12.76632,-16.7594 0.0318,-0.27501 1.10589,-2.07501 2.38798,-4 2.50474,-3.76061 2.98193,-6 1.27882,-6 -0.58311,0 -1.06021,0.69434 -1.06021,1.54296 0,1.38841 -6.73004,12.11956 -9.52356,15.18548 -0.61566,0.67561 -2.52446,3.15061 -4.24176,5.49999 -1.71742,2.34934 -4.92855,5.88453 -7.13601,7.85595 -5.12172,4.57428 -19.02742,14.91562 -20.05656,14.91562 -0.43086,0 -1.76831,0.81989 -2.97206,1.82198 -2.41207,2.00787 -18.36714,9.0122 -23.39281,10.26953 -1.74933,0.43764 -5.08897,1.29152 -7.4214,1.89749 -19.68169,5.11343 -52.71555,4.41851 -68.38299,-1.43855 -2.04088,-0.76298 -6.57324,-2.42615 -10.0719,-3.69595 -14.01384,-5.08621 -24.38028,-11.62358 -37.27614,-23.50729 -5.28043,-4.86597 -11.5123,-11.54721 -13.84867,-14.84721 -7.881,-11.13149 -15.40005,-27.24146 -18.43583,-39.5 -3.00918,-12.15074 -0.94211,-52.35375 2.58603,-50.29707 0.59975,0.34964 0.70005,0.0877 0.23686,-0.61908 -0.99786,-1.52294 3.11613,-13.86341 6.88302,-20.64617 9.2227,-16.60688 15.95921,-25.34668 25.38801,-32.93769 15.92465,-12.82074 16.48506,-13.2088 25.98511,-17.99515 9.44681,-4.75953 22.52557,-9.07801 31.90463,-10.53461 4.0276,-0.62548 9.3232,-1.54966 11.76802,-2.05373 5.91391,-1.21931 12.62827,-1.15552 23.5951,0.22408 26.51182,3.33516 47.32197,11.89172 67.36889,27.70023 6.49617,5.12265 9.01383,6.24276 4.52971,2.01525 -3.75046,-3.53578 -14.20478,-11.85606 -14.89711,-11.85606 -0.33321,0 -3.38287,-1.726 -6.77701,-3.83555 -6.20473,-3.85645 -19.57662,-10.16445 -21.54688,-10.16445 -0.58153,0 -1.05734,-0.50249 -1.05734,-1.11662 0,-0.62431 -0.9349,-0.88602 -2.12041,-0.59363 -1.16622,0.28766 -2.12041,0.11514 -2.12041,-0.38337 0,-0.49851 -1.57864,-0.90639 -3.5081,-0.90639 -1.92935,0 -4.41414,-0.62494 -5.52163,-1.38876 -1.10737,-0.7638 -2.58552,-1.18173 -3.2845,-0.92873 -0.69899,0.253 -3.34525,-0.20421 -5.88041,-1.01606 -2.88194,-0.92289 -6.53603,-1.27127 -9.75014,-0.92955 -2.82735,0.30058 -5.44922,0.11246 -5.82622,-0.41808 -0.63125,-0.88819 -4.7619,-0.556 -28.51581,2.29333 -3.06133,0.36721 -5.56605,1.0547 -5.56605,1.52775 0,0.47307 -1.2644,0.8601 -2.80986,0.8601 -2.5994,0 -5.65183,1.1278 -18.39418,6.79621 -6.06138,2.69641 -11.03074,5.48873 -11.48546,6.4538 -0.19444,0.4125 -0.93532,0.75001 -1.6465,0.75001 -0.71118,0 -3.29542,1.38891 -5.74279,3.0865 -2.44727,1.69758 -4.46419,2.71008 -4.4819,2.24999 -0.018,-0.46008 -0.51855,-0.049 -1.11289,0.91349 -0.59435,0.96251 -1.77254,1.75001 -2.61828,1.75001 -0.8456,0 -1.5376,0.71713 -1.5376,1.59363 0,0.87648 -0.95418,1.82895 -2.1204,2.11661 -1.16622,0.28766 -2.1204,1.14553 -2.1204,1.90638 0,0.76085 -0.57528,1.38337 -1.2784,1.38337 -0.70312,0 -3.92347,2.67879 -7.15636,5.95286 -7.71029,7.80858 -8.52845,8.76835 -8.52845,10.00494 0,0.57321 -0.47711,1.04222 -1.06021,1.04222 -0.58312,0 -1.0602,0.70154 -1.0602,1.559 0,0.85747 -0.48452,1.27655 -1.07686,0.93129 -1.76142,-1.02685 7.20046,-12.21132 17.50997,-21.85226 24.37243,-22.79184 56.84766,-35.55283 90.64933,-35.6201 11.19825,-0.0224 30.78463,3.40537 42.40591,7.4211 5.9454,2.05445 28.43693,13.24025 30.46075,15.1492 0.82324,0.77646 1.82047,1.42167 2.21614,1.43379 1.77604,0.0544 19.25325,15.88172 19.26543,17.44666 0.0107,0.76399 -5.41867,-3.77266 -13.74116,-11.49178 -1.16579,-1.08129 -6.35208,-3.97691 -7.12295,-3.97691 -0.44136,0 2.82798,3.2625 7.26535,7.24999 4.43726,3.9875 9.69947,9.5 11.6938,12.25001 4.67528,6.44686 5.85337,8.64406 2.97397,5.54658 -1.25442,-1.34937 -3.70561,-3.98413 -5.4471,-5.855 -1.74159,-1.87089 -3.48107,-3.10489 -3.8656,-2.74222 -0.38442,0.36266 -0.23579,0.97243 0.33047,1.35501 2.54141,1.7172 9.31027,10.52879 7.61733,9.91603 -1.7347,-0.62784 -1.74,-0.47892 -0.0912,2.55645 0.96288,1.77273 2.04196,3.44815 2.39796,3.72314 0.90786,0.70135 3.06547,4.36962 7.35229,12.50001 2.02997,3.85 3.88543,6.468 4.12333,5.81779 0.23781,-0.6502 -0.31212,-2.54037 -1.22219,-4.20034 -0.91008,-1.65997 -1.65477,-3.3656 -1.65477,-3.79029 0,-1.58076 2.92563,3.30835 4.21377,7.04166 1.1042,3.20017 1.08438,4.01845 -0.11418,4.73469 -1.14407,0.68364 -1.06719,0.86909 0.36524,0.88117 3.40515,0.0287 6.85832,15.00982 8.18634,35.51531 l 0.77713,12.00001 0.13061,-10 c 0.12108,-9.27096 -0.73111,-19.00654 -2.40729,-27.5 -1.21541,-6.15861 1.15467,-0.97203 2.74168,5.99999 2.00548,8.81019 2.0165,39.66534 0.017,46.50001 -5.61472,19.18797 -11.60485,32.21327 -20.92095,45.49139 -1.56252,2.22709 -2.53261,4.34013 -2.15571,4.69559 0.37691,0.35549 0.68521,0.16949 0.68521,-0.41331 0,-0.58285 0.76875,-1.33794 1.70841,-1.67803 1.29853,-0.46999 1.53771,-0.1958 0.99732,1.14301 -0.86946,2.15406 -0.27268,1.54052 6.12829,-6.3009 2.72175,-3.33422 4.9486,-6.67386 4.9486,-7.42143 0,-0.74757 -1.49001,0.76255 -3.31112,3.35581 -1.8211,2.59324 -3.54138,4.49778 -3.82288,4.23228 -0.93987,-0.88651 6.4086,-9.6042 8.10886,-9.61972 1.17342,-0.0108 1.29524,-0.24345 0.40637,-0.7764 -1.53985,-0.92333 -0.50243,-2.60597 2.18474,-3.54339 1.36894,-0.47756 1.79821,-1.32926 1.39778,-2.7735 -0.71531,-2.57984 0.20802,-5.08479 1.57949,-4.28531 0.56095,0.32703 0.93161,-0.0131 0.82346,-0.75573 -0.3416,-2.34719 0.20006,-5.40163 0.73705,-4.15655 0.28318,0.65662 1.21371,0.9409 2.06782,0.63175 1.29641,-0.46922 1.24127,-0.78512 -0.33355,-1.91202 -1.3138,-0.94014 -1.44972,-1.35959 -0.44782,-1.38174 0.82557,-0.0182 1.1835,-0.65904 0.83988,-1.50362 -0.71531,-1.75825 1.24892,-7.52819 2.56283,-7.52819 0.50774,0 0.73949,0.56251 0.51495,1.25001 -0.22456,0.68749 -0.69329,2.59999 -1.04155,4.25 -0.56191,2.66212 -0.49013,2.77568 0.6376,1.00835 0.699,-1.0954 1.34646,-2.6704 1.43901,-3.49999 0.0922,-0.8296 0.78582,-3.53337 1.54089,-6.00835 0.75499,-2.47501 1.97707,-8.77501 2.71562,-14.00001 l 1.34285,-9.5 0,7.00001 c 0,3.84999 -0.61216,9.24999 -1.35324,11.99998 -0.74121,2.75 -1.93032,7.47501 -2.64256,10.50001 -1.71807,7.29593 -3.37877,12.06643 -5.0384,14.47251 -0.74828,1.08486 -1.36044,2.77847 -1.36044,3.76357 0,0.98508 -0.42143,2.57245 -0.93658,3.52749 -0.51506,0.95504 -1.58776,3.08641 -2.38376,4.73643 -0.79601,1.64999 -1.7258,3.22499 -2.06634,3.5 -0.34052,0.27499 -2.42362,3.425 -4.62905,6.99999 -2.20543,3.575 -5.33886,8.08294 -6.96296,10.01764 -1.62424,1.93471 -3.12007,4.61805 -3.32417,5.96299 -0.28126,1.85354 -1.21921,2.60798 -3.87589,3.11744 -2.26277,0.43397 -4.8364,2.13962 -7.26301,4.81358 -4.50182,4.96078 -21.66107,16.65055 -30.71996,20.92815 -8.74337,4.12841 -31.28461,11.16021 -35.77584,11.16021 -3.81662,0 -4.90248,1.23381 -4.90248,5.57036 0,1.32375 -0.79304,3.28038 -1.76228,4.34808 -1.3437,1.48022 -1.70447,3.6207 -1.51916,9.01143 0.18173,5.28471 -0.10952,7.07817 -1.15328,7.10194 -0.93722,0.0215 -0.78624,0.46861 0.45896,1.36025 1.02044,0.73066 1.85536,1.61631 1.85536,1.96818 0,0.35187 -6.79854,0.63842 -15.10788,0.63672 l -15.10786,-0.006 -0.32506,-10.49701 z m 13.45554,7.48263 c 4.30622,-0.52721 8.40612,-1.40996 9.11084,-1.96164 1.11099,-0.86969 1.2857,-4.92678 0.63739,-14.8029 -0.0646,-0.9777 -2.68305,-1.21684 -10.95145,-1.00002 -10.15578,0.26634 -10.85095,0.41589 -10.62026,2.28501 0.13572,1.09993 0.5635,5.26246 0.95069,9.24999 0.41273,4.25033 1.18796,7.23721 1.87369,7.21909 0.64323,-0.0169 4.69287,-0.46226 8.9991,-0.98953 z m 58.45323,-45.50247 c 1.12043,-1.27334 1.0548,-1.41968 -0.40022,-0.89302 -0.95715,0.34644 -1.74032,1.03174 -1.74032,1.5229 0,1.28596 0.61375,1.10535 2.14054,-0.62988 z m 11.11197,-5.4771 c 0.36036,-0.55002 0.17812,-1.00001 -0.405,-1.00001 -0.5831,0 -1.35504,0.44999 -1.7154,1.00001 -0.36036,0.54999 -0.17811,1 0.405,1 0.5831,0 1.35504,-0.45001 1.7154,-1 z m -7.9515,-1.00001 c 0,-0.55001 -0.21035,-1 -0.46756,-1 -0.25709,0 -0.76238,0.44999 -1.12275,1 -0.36037,0.55 -0.15001,1.00001 0.46755,1.00001 0.61757,0 1.12276,-0.45001 1.12276,-1.00001 z m -40.81776,-2.48371 c 8.58786,-1.46499 14.16642,-2.80241 18.02342,-4.32108 9.02508,-3.55342 21.62324,-10.09886 27.46186,-14.26778 7.41114,-5.29182 8.53261,-7.66711 5.24006,-11.09869 -1.65626,-1.72619 -1.60314,-1.82875 0.94676,-1.82875 1.48575,0 2.97608,0.67502 3.31163,1.50002 0.96712,2.37713 2.52519,1.78981 6.63517,-2.50113 7.90412,-8.25214 20.53736,-27.78362 20.54447,-31.76245 6.1e-4,-0.69496 0.4208,-2.04496 0.93234,-3 3.25069,-6.06917 6.47751,-22.86404 6.48175,-33.73643 0.0106,-13.8657 -5.12564,-33.6942 -11.85644,-45.81729 -11.11006,-20.01097 -28.52588,-35.8884 -50.16394,-45.73277 -10.6845,-4.86094 -13.91282,-5.85748 -27.54636,-8.50319 -11.66678,-2.26403 -43.63968,-0.75779 -50.05612,2.35815 -1.04748,0.50867 -2.45702,0.7369 -3.13248,0.5072 -0.67546,-0.22973 -1.53857,0.056 -1.91799,0.63512 -0.37934,0.57903 -1.79006,1.05278 -3.13472,1.05278 -1.34476,0 -3.80972,1.0125 -5.47763,2.24999 -1.6679,1.23751 -3.2828,2.1948 -3.58857,2.12733 -0.76249,-0.16823 -3.47671,0.62272 -4.95814,1.44482 -6.18224,3.43085 -16.17994,10.50906 -15.75649,11.15532 0.29293,0.44714 -0.24852,1.09572 -1.20333,1.44129 -0.95471,0.34558 -1.47039,0.87881 -1.14577,1.18496 0.32454,0.30614 -1.83922,2.76524 -4.80843,5.46466 -2.96909,2.6994 -5.5916,4.72582 -5.82771,4.50315 -0.74352,-0.70129 -4.25003,3.13016 -5.05557,5.52393 -0.42428,1.26111 -1.78347,3.13981 -3.02019,4.17492 -1.23674,1.03509 -1.53306,1.53635 -0.6584,1.11386 1.41305,-0.68253 1.41325,-0.5517 0,1.17381 -0.8735,1.06807 -2.35586,2.61697 -3.29393,3.44195 -0.93818,0.82501 -2.06696,2.62501 -2.50844,4.00001 -0.44135,1.375 -1.70236,3.90311 -2.8021,5.61802 -1.09975,1.71493 -1.99954,3.83876 -1.99954,4.7196 0,0.88085 -1.00953,3.29689 -2.24339,5.36893 -1.23386,2.07208 -2.3951,4.89826 -2.58054,6.28043 -0.18552,1.38216 -0.85971,4.76302 -1.49838,7.51302 -0.63856,2.75 -1.19675,11.74999 -1.24032,20.00001 -0.0646,12.26081 0.32516,16.40125 2.13492,22.67339 5.86492,20.32644 15.68749,35.7648 31.83987,50.04371 15.05919,13.31248 30.57481,20.93014 51.26771,25.17074 9.00375,1.84515 32.1804,1.91494 42.65296,0.12844 z m -18.55352,-5.57531 c 0,-0.58245 0.4771,-0.7809 1.0602,-0.44097 0.58312,0.33992 1.06022,0.81648 1.06022,1.05901 0,0.24254 -0.4771,0.44099 -1.06022,0.44099 -0.5831,0 -1.0602,-0.47658 -1.0602,-1.05903 z m -2.93463,-8.94098 c 0,-1.92499 0.21819,-2.7125 0.48483,-1.75001 0.26675,0.96252 0.26675,2.53751 0,3.5 -0.26664,0.9625 -0.48483,0.17501 -0.48483,-1.74999 z m 8.23565,1.94098 c 0,-0.58247 0.47708,-0.78091 1.0602,-0.44098 0.5831,0.33991 1.0602,0.81649 1.0602,1.05902 0,0.24253 -0.4771,0.44097 -1.0602,0.44097 -0.58312,0 -1.0602,-0.47656 -1.0602,-1.05901 z m -0.26506,-3.27277 c -0.43732,-1.00748 -0.76494,-3.25748 -0.72793,-5.00001 0.0657,-3.09187 0.0922,-3.1089 1.10897,-0.7067 0.57303,1.35382 0.90054,3.60382 0.72793,5 -0.26854,2.17205 -0.42863,2.27408 -1.10897,0.70671 z m 44.7935,-3.72723 c 0,-0.58246 0.47709,-0.78089 1.0602,-0.44098 0.58311,0.33992 1.06021,0.81648 1.06021,1.05902 0,0.24253 -0.4771,0.44098 -1.06021,0.44098 -0.58311,0 -1.0602,-0.47656 -1.0602,-1.05902 z m -90.10087,-0.63197 c 0.0106,-0.44495 0.47879,-1.48401 1.04398,-2.309 0.88569,-1.2927 1.02999,-1.26629 1.04398,0.19097 0.0106,0.93004 -0.46087,1.96911 -1.04398,2.30902 -0.58311,0.33992 -1.05289,0.25399 -1.04398,-0.19099 z m 36.40106,-10.30901 c 0,-4.675 0.18267,-6.58749 0.40583,-4.24999 0.22328,2.3375 0.22328,6.16249 0,8.49999 -0.22316,2.33749 -0.40583,0.42499 -0.40583,-4.25 z m -44.25906,5.50001 c 0.42101,-1.1 1.54599,-3.12501 2.49995,-4.50001 0.95396,-1.375 2.32544,-3.79566 3.04776,-5.37922 0.72232,-1.58357 1.56476,-2.64203 1.8721,-2.35211 0.30735,0.28992 -0.92948,3.16057 -2.74856,6.37923 -3.51786,6.22458 -6.00742,9.34344 -4.67125,5.85211 z m 10.0063,-0.5 c 0.017,-0.82501 0.71287,-2.62501 1.54618,-4.00001 0.83331,-1.375 1.5321,-3.4574 1.55277,-4.62755 0.0212,-1.17017 0.74054,-2.67789 1.59984,-3.35048 1.31583,-1.03008 1.289,-0.4667 -0.17006,3.57239 -2.13121,5.89942 -4.57052,10.42711 -4.52873,8.40565 z m 40.89035,-1.41743 c -0.35378,-1.32958 -0.1972,-3.46708 0.34796,-4.75001 0.82971,-1.95258 1.00221,-1.55874 1.0584,2.41743 0.0743,5.22744 -0.41868,6.04452 -1.40636,2.33258 z m -54.56188,0.80661 c 2.30382,-4.76138 4.76147,-8.95031 5.41084,-9.22251 0.43734,-0.18335 0.79516,-0.77799 0.79516,-1.32144 0,-0.54345 0.79229,-1.73541 1.76068,-2.64881 2.06856,-1.95102 1.94111,-1.62594 -2.53972,6.48072 -1.87783,3.39743 -3.96399,6.49757 -4.63572,6.8892 -0.67186,0.39162 -1.02788,0.31189 -0.79124,-0.17716 z m 96.83231,-4.54118 c -2.32099,-2.83361 -5.01867,-5.94954 -5.99501,-6.92431 -0.97635,-0.97477 -2.34718,-2.81886 -3.04638,-4.09802 -1.2628,-2.31021 -1.25804,-2.31237 0.72094,-0.32568 2.03717,2.04512 10.4698,11.60045 13.01682,14.75001 0.7784,0.96249 0.9896,1.75 0.46936,1.75 -0.52025,0 -2.84484,-2.31841 -5.16573,-5.152 z m -85.32531,-8.848 c 0,-0.55 0.4771,-1.00001 1.06021,-1.00001 0.58311,0 1.0602,0.45001 1.0602,1.00001 0,0.54999 -0.47709,0.99998 -1.0602,0.99998 -0.58311,0 -1.06021,-0.44999 -1.06021,-0.99998 z m -2.1204,-3.00002 c 0,-0.54999 0.5053,-1 1.12276,-1 0.61756,0 0.8279,0.45001 0.46754,1 -0.36036,0.55001 -0.86566,1.00001 -1.12275,1.00001 -0.25709,0 -0.46755,-0.45 -0.46755,-1.00001 z m 5.83111,-3 c 0.36036,-0.54999 0.86565,-0.99999 1.12275,-0.99999 0.2572,0 0.46755,0.45 0.46755,0.99999 0,0.55 -0.50519,1.00001 -1.12274,1.00001 -0.61757,0 -0.82793,-0.45001 -0.46756,-1.00001 z m -39.75755,-0.75886 c 0,-0.55206 1.7891,-2.25136 3.97576,-3.77623 2.18666,-1.52486 5.40703,-3.98818 7.15637,-5.47402 1.74932,-1.48586 4.13477,-3.01833 5.30099,-3.40547 2.36755,-0.78592 2.55784,-0.96536 -6.3612,5.99731 -9.26288,7.23112 -10.07192,7.76596 -10.07192,6.65841 z M 456.579,290.31679 c -0.95556,-0.58246 -1.08628,-0.97549 -0.3276,-0.98469 0.69442,-0.008 1.55753,0.4347 1.9179,0.98469 0.81349,1.24154 0.44644,1.24154 -1.5903,0 z m -14.06114,-12.3363 c -6.84167,-3.39003 -12.4404,-6.53153 -12.44167,-6.98108 0,-1.21333 3.58645,0.0782 10.57965,3.80665 3.42603,1.82655 6.50814,3.05785 6.84911,2.73625 0.34095,-0.3216 -3.00451,-2.56612 -7.43435,-4.98783 -4.42984,-2.42171 -7.8054,-4.63784 -7.50124,-4.92474 0.57961,-0.54667 1.30522,-0.22655 14.99792,6.61708 9.4482,4.72217 11.30186,6.07802 9.2702,6.78038 -0.7325,0.25324 -1.08258,0.84088 -0.77788,1.30591 1.6166,2.46719 -2.35365,1.19107 -13.54174,-4.35262 z m 9.82034,1.3363 c 0,-0.55001 -0.4771,-1 -1.06021,-1 -0.58311,0 -1.06021,0.44999 -1.06021,1 0,0.54999 0.4771,1 1.06021,1 0.58311,0 1.06021,-0.45001 1.06021,-1 z m 10.21863,3.5 c -0.36799,-0.90455 0,-1.5 0.91347,-1.5 0.91888,0 1.28146,0.59545 0.91348,1.5 -0.33556,0.82499 -0.7467,1.49999 -0.91348,1.49999 -0.16676,0 -0.5778,-0.675 -0.91347,-1.49999 z M 297.93908,280.8991 c 1.67236,-1.29015 5.01199,-3.32154 7.42141,-4.51414 2.40931,-1.19264 6.289,-3.25135 8.62145,-4.57492 7.34465,-4.16783 6.68797,-2.69183 -0.89364,2.00876 -3.99028,2.4739 -7.47442,4.49799 -7.74276,4.49799 -0.26823,0 -2.24306,1.12499 -4.38838,2.5 -4.91605,3.15086 -7.07197,3.20967 -3.01808,0.0823 z m -4.63107,-1.00074 c 0,-0.23015 1.7891,-1.44389 3.97576,-2.69721 2.18667,-1.25334 4.21431,-2.53669 4.50585,-2.85193 0.29156,-0.31523 1.72284,-1.12321 3.1806,-1.79553 2.71424,-1.25176 4.68017,-2.36586 9.80231,-5.555 1.60611,-0.99995 2.91598,-1.44996 2.91089,-0.99999 -0.0106,0.75465 -10.89876,7.8278 -14.74962,9.57983 -0.92079,0.41896 -3.10554,1.62358 -4.85488,2.6769 -3.14646,1.8946 -4.77091,2.45402 -4.77091,1.64293 z m 163.48504,-1.83157 c -0.60813,-0.68751 -3.8869,-2.6 -7.28613,-4.25 -3.39922,-1.65001 -6.41898,-3.27705 -6.71054,-3.61568 -0.29156,-0.3386 -2.67701,-1.64714 -5.301,-2.90784 -2.624,-1.26071 -4.20688,-2.47349 -3.51754,-2.69507 0.68934,-0.22159 2.69334,0.29944 4.45326,1.15785 1.75984,0.85841 3.58126,1.55073 4.04764,1.5385 1.36798,-0.0359 -4.32233,-3.9311 -5.77852,-3.95551 -0.72888,-0.0122 -1.32524,-0.70734 -1.32524,-1.54468 0,-1.12055 2.58868,-0.2317 9.80685,3.36722 5.39377,2.68932 11.32349,5.61941 13.17713,6.51133 3.31314,1.59418 3.34324,1.67277 1.77775,4.6328 -1.8157,3.43299 -1.84909,3.45055 -3.34366,1.76108 z m -10.81607,-9.75 c 0,-0.55 -0.50518,-1.00001 -1.12275,-1.00001 -0.61757,0 -0.82791,0.45001 -0.46755,1.00001 0.36036,0.54999 0.86566,1 1.12276,1 0.2572,0 0.46754,-0.45001 0.46754,-1 z m -153.72916,8.08155 c 0,-0.59484 0.46786,-1.08156 1.03962,-1.08156 0.57178,0 3.64996,-1.57498 6.84042,-3.49999 3.19036,-1.925 6.09034,-3.5 6.44433,-3.5 1.42439,0 -0.7749,1.96321 -3.78715,3.38061 -1.76183,0.82897 -4.85338,2.46919 -6.8702,3.64488 -2.01682,1.1757 -3.66702,1.65093 -3.66702,1.05606 z m 19.86106,-11.20565 c 0.71924,-0.6834 1.57472,-0.99066 1.90116,-0.68276 0.32644,0.30787 -0.26198,0.86705 -1.30766,1.24256 -1.511,0.5427 -1.6327,0.42783 -0.5935,-0.5598 z m 158.05394,-1.55901 c 0.76536,-0.28887 1.67978,-0.25334 2.0321,0.0789 0.3523,0.33229 -0.27396,0.56863 -1.39152,0.52522 -1.23514,-0.048 -1.4863,-0.28494 -0.64058,-0.60415 z m -98.60188,-20.13014 c -4.16374,-2.37979 -5.44636,-5.63876 -3.85404,-9.7922 1.01344,-2.64354 1.02214,-4.123 0.0392,-6.68707 -1.28709,-3.35721 -0.68596,-7.1562 1.83563,-11.60022 3.17223,-5.59071 6.0724,-38.21188 3.49167,-39.27393 -0.91792,-0.37778 -5.20548,-16.25744 -6.03001,-22.33333 -0.39259,-2.89301 -0.27533,-3.44651 0.42355,-2 0.53159,1.1 0.99998,3.0125 1.04092,4.25 0.0414,1.2375 0.43234,2.24085 0.86968,2.22967 1.1288,-0.0288 5.68374,-9.73874 6.0354,-12.86569 0.16539,-1.46974 1.05512,-2.7555 2.03272,-2.9373 1.35113,-0.25124 1.73874,0.47338 1.73874,3.25 0,1.96533 0.47708,3.57332 1.0602,3.57332 0.5831,0 1.06019,0.87883 1.06019,1.95295 0,1.07412 0.55958,3.11132 1.24351,4.52712 0.95122,1.96907 0.95122,2.84989 0,3.74706 -0.73864,0.69669 -1.24351,4.33976 -1.24351,8.97287 0,4.53333 -0.44401,7.8 -1.06019,7.8 -1.5743,0 -1.268,16.87872 0.51706,28.50001 0.84488,5.49999 1.55128,10.35921 1.56974,10.79825 0.018,0.43906 1.58414,1.43395 3.47925,2.21087 2.89043,1.18497 3.06133,1.41889 1.06021,1.45173 -2.76978,0.0454 -3.26935,2.78197 -0.67906,3.71953 1.56835,0.56763 1.56835,0.69044 0,1.51829 -0.9385,0.49539 -1.7064,1.73491 -1.7064,2.75451 0,1.48095 1.01281,1.94536 5.03596,2.3092 2.76977,0.25046 8.13704,1.70969 11.92726,3.24273 7.69335,3.11173 15.90301,4.45404 15.90301,2.60018 0,-0.63514 1.31201,-1.62754 2.91556,-2.20535 2.31134,-0.83283 4.01413,-0.63932 8.21656,0.93379 8.86519,3.31846 11.10317,3.59754 26.85171,3.34835 8.45511,-0.1338 14.93602,0.14667 14.61752,0.6326 -0.31456,0.48012 -8.99283,1.18298 -19.28505,1.5619 -13.15222,0.48418 -19.60694,1.12493 -21.72119,2.15616 -4.29414,2.0945 -8.79257,1.83629 -11.16573,-0.64097 -2.57161,-2.68436 -8.43973,-2.18037 -20.10894,1.72706 -6.86521,2.29882 -8.63799,2.5518 -11.28275,1.61017 -2.07409,-0.73841 -4.03047,-0.79709 -5.77058,-0.1731 -3.54722,1.27209 -5.66741,1.06863 -9.05772,-0.86916 z m 2.32236,-77.07975 c 0,-3.57993 -0.45907,-5.05919 -1.71073,-5.51222 -1.45651,-0.5272 -1.60569,-0.0602 -1.00359,3.14302 1.61374,8.58701 2.71432,9.54765 2.71432,2.3692 z m 99.46012,78.20988 c 0.76536,-0.28886 1.67978,-0.25334 2.03209,0.079 0.35231,0.33229 -0.27395,0.56863 -1.39151,0.52522 -1.23514,-0.048 -1.4863,-0.28494 -0.64058,-0.60416 z m -176.55773,-2.05315 c 2.78737,-0.20668 7.08119,-0.20417 9.54181,0.006 2.46062,0.20973 0.18003,0.37882 -5.06797,0.37576 -5.24801,-0.004 -7.26122,-0.17464 -4.47384,-0.3813 z m -21.50109,-3.32275 c 0,-0.58246 0.47709,-0.78091 1.0602,-0.44097 0.58311,0.33991 1.0602,0.81647 1.0602,1.05902 0,0.24253 -0.47709,0.44098 -1.0602,0.44098 -0.58311,0 -1.0602,-0.47658 -1.0602,-1.05903 z m 7.4214,0.16744 c 0,-0.60964 0.9474,-1.10843 2.10524,-1.10843 1.15786,0 4.13966,-0.44983 6.62626,-0.99965 11.42474,-2.52616 19.03104,-3.78976 18.17736,-3.01971 -0.51366,0.46331 -5.70484,1.80509 -11.53594,2.98175 -5.8311,1.17666 -11.67546,2.39025 -12.98746,2.69691 -1.39459,0.32593 -2.38546,0.097 -2.38546,-0.55087 z m 157.96998,-4.04805 c 0,-0.5168 1.78908,-1.11616 3.97576,-1.33189 l 3.97575,-0.39226 -3.97575,-0.16812 c -7.5023,-0.31721 -3.97268,-1.86883 5.7289,-2.51836 13.33912,-0.89307 18.92076,-0.81433 18.92076,0.26692 0,0.50416 -0.59636,1.14365 -1.32524,1.42106 -0.79166,0.30132 -0.57825,0.53616 0.5301,0.58333 1.02044,0.0435 1.85536,0.75396 1.85536,1.57894 0,1.26191 -2.35598,1.5 -14.84282,1.5 -8.55265,0 -14.84282,-0.39819 -14.84282,-0.93962 z m 33.39634,-0.0605 c -0.36036,-0.55001 -0.15002,-1.00001 0.46754,-1.00001 0.61758,0 1.12276,0.45 1.12276,1.00001 0,0.54999 -0.21034,0.99999 -0.46756,0.99999 -0.2571,0 -0.76238,-0.45 -1.12274,-0.99999 z m -2.8493,-19.68312 c 0.76536,-0.28888 1.67978,-0.25334 2.0321,0.0789 0.3523,0.33227 -0.27396,0.56862 -1.39152,0.52522 -1.23514,-0.048 -1.4863,-0.28495 -0.64058,-0.60417 z M 311.53128,204.10605 c -3.68028,-1.09981 -6.45397,-2.22356 -6.16389,-2.49724 0.56529,-0.53318 14.44565,3.58846 14.44565,4.28948 0,0.61023 -0.87826,0.42018 -8.28176,-1.79224 z m 121.25563,0.7425 c 1.13187,-0.8075 2.61457,-1.48249 3.29489,-1.49999 0.68023,-0.0175 1.39586,-0.3693 1.59032,-0.7818 0.19432,-0.4125 3.45444,-2.51796 7.24466,-4.6788 3.79022,-2.16088 7.96476,-4.57511 9.27676,-5.36502 1.312,-0.7899 2.38546,-0.99606 2.38546,-0.45811 0,0.98951 -16.38828,11.25193 -17.9684,11.25193 -0.47063,0 -1.4495,0.67501 -2.17542,1.5 -0.72593,0.825 -2.30679,1.5 -3.51308,1.5 -2.15603,0 -2.15836,-0.025 -0.13519,-1.46821 z m -2.12983,-2.38659 c 0.55396,-0.47014 5.73325,-3.62013 11.50954,-7 11.0351,-6.457 17.90224,-8.67235 8.1995,-2.6452 -3.09888,1.92499 -5.822,3.50001 -6.05142,3.50001 -0.22933,0 -3.0273,1.57498 -6.21766,3.49999 -5.21693,3.1477 -10.06162,4.87019 -7.43996,2.6452 z m -133.96968,-2.8283 c -2.51468,-0.83888 -4.38478,-1.70193 -4.15576,-1.91791 0.22888,-0.21595 3.00206,0.47304 6.16241,1.53111 3.16035,1.05806 5.03044,1.92111 4.15577,1.91788 -0.87466,-0.004 -3.64772,-0.69222 -6.16242,-1.53108 z m -9.21048,-7.3169 c 0.36036,-0.55 0.86565,-1 1.12274,-1 0.2572,0 0.46756,0.45 0.46756,1 0,0.55001 -0.50519,0.99999 -1.12276,0.99999 -0.61756,0 -0.82792,-0.44998 -0.46754,-0.99999 z m 171.76328,-4.01628 c 0.36631,-0.55897 1.11004,-0.75743 1.65286,-0.44096 1.4706,0.85721 1.19633,1.45727 -0.66591,1.45727 -0.90913,0 -1.35324,-0.45734 -0.98695,-1.01631 z M 331.86892,175.77951 c -10.8411,-11.09771 -13.4194,-15.12697 -3.4956,-5.46271 11.96712,11.65413 14.10514,13.95496 13.49859,14.52699 -0.32867,0.31005 -4.83006,-3.76887 -10.00299,-9.06428 z m 8.5645,1.34592 c -2.19642,-3.46976 -5.62032,-8.49023 -7.60884,-11.15659 -1.98841,-2.66638 -3.34408,-5.10388 -3.01245,-5.41667 0.33163,-0.31278 0.78623,-0.38121 1.01036,-0.15204 1.68297,1.72114 14.47472,22.2129 14.09167,22.57417 -0.26803,0.25288 -2.28442,-2.37913 -4.48074,-5.84887 z m 66.0288,4.94136 c 0.56796,-0.68751 3.3197,-5.30001 6.11504,-10.25 5.44403,-9.64053 7.9549,-13.45863 7.9549,-12.09664 0,1.79096 -12.92226,23.59664 -13.98363,23.59664 -0.73896,0 -0.76823,-0.42442 -0.0858,-1.25 z m -82.89319,-23.6809 c -0.33545,-0.512 -0.12512,-1.21356 0.46754,-1.55902 0.59265,-0.34547 1.07748,0.0732 1.07748,0.9309 0,1.75653 -0.63611,2.01515 -1.54502,0.62812 z M 456.6003,331.79262 c 1.94898,-2.21501 0.8399,-2.46966 -1.34656,-0.30916 -1.02044,1.00833 -1.43668,1.83333 -0.92492,1.83333 0.51166,0 1.5339,-0.68586 2.27148,-1.52417 z m 19.06232,-6.36883 c 0,-1.22683 -2.98691,-2.21166 -3.64795,-1.20281 -0.29431,0.44926 -0.23005,1.10462 0.14281,1.45633 1.01038,0.95302 3.50514,0.77258 3.50514,-0.25352 z m -7.42142,-3.107 c 1.16623,-1.09999 1.71732,-2 1.22453,-2 -0.49277,0 -1.75939,0.90001 -2.81483,2 -1.05543,1.1 -1.60641,1.99999 -1.22452,1.99999 0.38198,0 1.6486,-0.89999 2.81482,-1.99999 z m 0,-6 c 0,-0.54999 -0.21035,-1 -0.46754,-1 -0.25709,0 -0.76239,0.45001 -1.12276,1 -0.36036,0.55 -0.15002,0.99999 0.46756,0.99999 0.61755,0 1.12274,-0.44999 1.12274,-0.99999 z m 18.39195,-35.75 c 2.49402,-4.62402 3.09039,-7.25001 1.6466,-7.25001 -0.71955,0 -0.99436,0.29611 -0.61068,0.65799 0.38368,0.3619 0.29389,1.14941 -0.19963,1.75002 -1.10696,1.34741 -3.3831,7.59201 -2.76712,7.59201 0.24618,0 1.11512,-1.23751 1.93083,-2.75001 z m 3.64731,-11.3867 c -0.26474,-0.74896 -0.74532,-0.29566 -1.12022,1.05654 -0.46108,1.66334 -0.32314,2.05379 0.46364,1.3117 0.61607,-0.58109 0.91156,-1.64681 0.65658,-2.36824 z m 3.3178,-8.91251 c 1.38822,-6.1059 1.41568,-6.95079 0.2257,-6.95079 -0.5073,0 -1.17024,1.9125 -1.47324,4.25 -0.3029,2.3375 -0.89312,5.0375 -1.31148,6 -0.43224,0.99451 -0.29186,1.74999 0.32516,1.74999 0.59712,0 1.6024,-2.27214 2.23386,-5.0492 z m 0.812,-11.13828 c -0.33842,-0.79775 -0.58968,-0.56079 -0.64047,0.60415 -0.0457,1.05417 0.20451,1.6448 0.55682,1.31251 0.3523,-0.33229 0.38995,-1.19479 0.0838,-1.91666 z m -254.1123,-50.87154 c 0,-1.06753 -0.71564,-1.94096 -1.5903,-1.94096 -1.57249,0 -2.22292,3.06993 -0.9123,4.30613 1.10536,1.0426 2.5026,-0.27792 2.5026,-2.36517 z m 3.92477,-2.57245 c -0.36834,-0.34731 -0.22605,-1.41315 0.31603,-2.36852 0.54209,-0.95537 0.71246,-1.99473 0.3785,-2.30966 -0.74829,-0.7058 -4.6193,1.48077 -4.6193,2.60922 0,0.45016 0.47708,0.54037 1.0602,0.20044 0.58312,-0.33992 1.0602,0.0835 1.0602,0.94098 0,0.85746 0.55659,1.55903 1.23694,1.55903 0.68022,0 0.93562,-0.28418 0.56743,-0.63149 z m 265.36633,-6.36852 c 0,-1.10001 -0.4771,-2.00001 -1.0602,-2.00001 -0.58312,0 -1.06021,0.9 -1.06021,2.00001 0,1.1 0.47709,2 1.06021,2 0.5831,0 1.0602,-0.9 1.0602,-2 z m -4.63244,-6.52025 c -0.35942,-0.88359 -1.15722,-1.31293 -1.77278,-0.9541 -0.76854,0.44804 -0.72357,1.10197 0.14366,2.08754 1.54048,1.75081 2.52414,1.06644 1.62912,-1.13344 z m -3.84918,-4.47975 c 0,-0.55 -0.47709,-0.99999 -1.0602,-0.99999 -0.5831,0 -1.0602,0.44999 -1.0602,0.99999 0,0.55 0.4771,1 1.0602,1 0.58311,0 1.0602,-0.45 1.0602,-1 z m -54.45935,-37.85303 c -2.53939,-2.6467 -12.06869,-7.35978 -12.75697,-6.30945 -0.31818,0.48556 2.62887,2.49823 6.54886,4.47258 8.35448,4.20775 8.53388,4.26084 6.20811,1.83687 z m -14.98383,-8.14696 c -0.36035,-0.55001 -1.1042,-1.00001 -1.65285,-1.00001 -0.54866,0 -0.99764,0.45 -0.99764,1.00001 0,0.54998 0.74383,1 1.65285,1 0.90912,0 1.35802,-0.45002 0.99764,-1 z m -144.9825,-4.38289 c 5.12088,-3.27634 5.34978,-3.83496 2.35471,-5.74515 -1.51513,-0.96628 -2.34263,-2.92439 -2.7982,-6.62197 -0.58396,-4.73833 -0.44665,-5.25 1.40902,-5.25 1.13081,0 2.62855,0.54 3.32829,1.2 0.98947,0.93334 1.27224,0.0443 1.27224,-4 0,-4.96637 -1.48354,-6.92881 -2.79724,-3.69998 -1.06295,2.61271 -3.56398,1.71138 -3.56398,-1.28439 0,-3.510139 4.90938,-6.597435 8.96454,-5.637438 2.8106,0.665358 3.44703,-0.572859 2.05414,-3.996397 -0.93445,-2.296859 -2.07451,-2.055955 -12.34392,2.60834 -6.56677,2.982619 -9.27676,4.738745 -9.27676,6.011655 0,0.98903 0.65604,1.79822 1.45779,1.79822 0.80182,0 1.75599,1.40626 2.1204,3.12501 1.05785,4.98875 0.76566,20.6969 -0.39759,21.37497 -0.58311,0.33992 -1.0602,1.45257 -1.0602,2.47254 0,2.39805 3.06271,1.62042 9.27676,-2.35541 z m 139.1514,2.38289 c 0,-0.55001 -0.50518,-1.00001 -1.12276,-1.00001 -0.61755,0 -0.8279,0.45 -0.46754,1.00001 0.36036,0.55001 0.86565,0.99999 1.12276,0.99999 0.2572,0 0.46754,-0.44998 0.46754,-0.99999 z m 36.9039,-12.23944 c -0.36894,-3.50583 -2.97746,-5.12122 -2.97746,-1.84389 0,2.50002 0.0699,2.49373 -5.27949,0.47475 -4.16287,-1.57108 -4.26233,-1.72266 -4.26233,-6.50001 0,-2.69027 0.35782,-4.88526 0.79516,-4.87775 2.67467,0.0459 5.56606,1.42875 5.56606,2.66198 0,0.79331 0.47709,1.16427 1.0602,0.82435 0.5831,-0.33992 1.0602,-2.36491 1.0602,-4.49998 0,-2.13509 -0.4771,-4.16009 -1.0602,-4.500015 -0.58311,-0.339904 -1.0602,0.04462 -1.0602,0.854505 0,1.11691 -0.70408,1.29601 -2.91556,0.74162 -2.63863,-0.6615 -2.94576,-1.21666 -3.23351,-5.845493 l -0.31795,-5.114562 3.39709,1.181965 c 1.86839,0.650083 4.23021,2.464941 5.24853,4.033006 1.79386,2.762483 1.8739,2.784047 2.57703,0.69438 0.42027,-1.248863 0.12987,-2.99699 -0.68966,-4.153035 -2.00654,-2.830123 -17.71734,-9.41617 -19.17724,-8.039191 -0.79451,0.749398 -0.78773,1.44639 0.0222,2.367614 1.67129,1.899475 3.02009,25.779186 1.45608,25.779186 -5.19997,0 6.1233,7.93164 14.69258,10.29175 3.09611,0.85268 5.44488,-1.235 5.09788,-4.53118 z m -156.66432,0.21911 c 2.87484,-1.38337 4.1985,-2.68124 4.1985,-4.11664 0,-1.62936 -0.49013,-1.97541 -2.20035,-1.55357 -2.04724,0.50498 -2.1487,0.25225 -1.45745,-3.63337 0.4087,-2.29683 1.30235,-4.93374 1.98596,-5.85977 1.1394,-1.54346 1.53052,-1.47142 4.69543,0.8649 2.95965,2.18478 3.35341,2.97469 2.75757,5.53323 -0.64693,2.77805 -0.52246,2.93389 1.7979,2.25155 7.77509,-2.28641 9.60955,-3.82459 6.89628,-5.78253 -1.70204,-1.22828 -4.89112,-8.923601 -4.91806,-11.867554 -0.0307,-3.361881 -5.56424,-13.815993 -7.3104,-13.811277 -1.87539,0.0054 -8.6081,5.516015 -8.6081,7.046055 0,0.522118 0.66496,0.949314 1.47762,0.949314 1.18434,0 1.27392,0.75663 0.45153,3.812466 -0.76207,2.831906 -1.97261,4.293335 -4.70655,5.682071 -4.34715,2.208125 -4.66415,5.790435 -0.56106,6.338255 2.33436,0.31165 2.44663,0.62932 1.7682,5 -0.39852,2.56696 -1.16239,5.09469 -1.69758,5.61719 -1.33142,1.29996 -1.23228,5.55 0.12955,5.55 0.60634,0 2.99178,-0.90915 5.30101,-2.02032 z m -3.22292,-15.97968 c 0,-0.55 0.5053,-0.99999 1.12277,-0.99999 0.61755,0 0.82791,0.44999 0.46754,0.99999 -0.36036,0.55002 -0.86565,1.00001 -1.12275,1.00001 -0.2571,0 -0.46756,-0.44999 -0.46756,-1.00001 z m 9.04468,-4.949771 c -0.39025,-0.595562 -1.1537,-0.823939 -1.69652,-0.507496 -0.54283,0.316416 -0.98695,-0.324688 -0.98695,-1.424679 0,-3.164837 2.01747,-3.503664 3.2123,-0.539531 1.11067,2.755612 0.75296,4.427928 -0.52883,2.471706 z m 75.57158,10.910811 c 1.27616,-1.1214 2.32024,-2.45558 2.32024,-2.9648 0,-1.35024 -3.20551,-2.62181 -7.15636,-2.83878 -4.1121,-0.22582 -4.83684,2.37956 -1.0602,3.81139 2.668,1.01151 1.77637,1.3403 -2.83105,1.0439 -4.13637,-0.26613 -9.81153,-4.5939 -12.47411,-9.512737 -1.19093,-2.199998 -3.36106,-5.503599 -4.82244,-7.341323 l -2.65728,-3.34131 2.24826,-2.868201 c 3.84556,-4.906055 2.45606,-9.069289 -3.66257,-10.973952 -4.39963,-1.369562 -14.06579,-0.542302 -16.95611,1.451144 -1.7997,1.241264 -1.77797,1.371893 0.41156,2.4772 2.15826,1.089453 2.31145,1.889773 2.31145,12.072614 0,6.308531 -0.45419,11.170575 -1.07749,11.533895 -2.0519,1.19616 0.16063,2.48993 4.2581,2.48993 4.63552,0 6.50571,-1.69596 3.8727,-3.511956 -1.95215,-1.346373 -2.48014,-8.945695 -0.6939,-9.986957 1.71868,-1.001927 5.54018,2.120865 10.10393,8.256709 5.95609,8.007784 12.88547,12.242194 20.03355,12.242194 4.08094,0 6.11356,-0.52917 7.83172,-2.03896 z M 348.08512,84.650131 c -0.38878,-0.366655 -0.70684,-2.391656 -0.70684,-4.5 l 0,-3.833331 4.7972,0 c 4.23858,0 4.9241,0.315022 5.88761,2.705452 0.93488,2.319128 0.74183,2.958529 -1.35143,4.477756 -2.43572,1.76771 -7.28624,2.414397 -8.62654,1.150123 z m 80.92865,23.366649 c 0,-0.71498 -0.41783,-1.72747 -0.92853,-2.24998 -0.5106,-0.52251 -1.23682,-3.27102 -1.61384,-6.10782 l -0.68532,-5.157825 4.18378,0.529303 c 3.50524,0.443452 4.6266,0.111533 6.91483,-2.046715 3.4499,-3.253977 3.45033,-5.707303 0,-9.573022 -1.89425,-2.123327 -4.84819,-3.67678 -9.65344,-5.07673 -3.80825,-1.109454 -7.58946,-2.017191 -8.40274,-2.017191 -1.98098,0 -1.8934,2.63591 0.11165,3.361641 1.28644,0.465591 1.5903,2.779355 1.5903,12.106979 0,7.020913 -0.41464,11.53138 -1.0602,11.53138 -0.58311,0 -1.0602,0.8553 -1.0602,1.90066 0,1.35259 1.14649,2.18786 3.97575,2.89664 5.58736,1.39971 6.62625,1.38445 6.62625,-0.0973 z m -3.18061,-21.136612 c 0,-3.768924 0.34054,-4.563367 1.95607,-4.563367 2.77371,0 5.69901,3.413513 5.28552,6.167534 -0.27257,1.815104 -1.11457,2.401977 -3.79593,2.645838 -3.43252,0.312158 -3.44566,0.295995 -3.44566,-4.250005 z m -90.72247,18.883972 c 2.18275,-0.38622 3.78598,-1.25802 3.78598,-2.05863 0,-0.7638 -0.47709,-1.38872 -1.0602,-1.38872 -0.65489,0 -1.06021,-5.202777 -1.06021,-13.608402 l 0,-13.608405 -2.60374,0.61639 c -6.36376,1.506528 -8.22716,2.597717 -7.4528,4.364332 1.3259,3.024829 2.95416,20.426905 1.9741,21.098885 -0.8154,0.55915 -1.04483,2.82591 -0.55607,5.49419 0.0858,0.47135 0.83873,0.61025 1.67193,0.30863 0.83322,-0.30158 3.21867,-0.84981 5.30101,-1.21827 z m 76.84699,-5.06306 c 3.21558,-3.855834 4.37948,-8.884614 3.2986,-14.251767 -1.9565,-9.715253 -4.44013,-13.041418 -9.78206,-13.100708 -7.42692,-0.0824 -11.4471,5.361843 -11.4471,15.502015 0,5.557836 0.98917,8.13396 4.69066,12.21619 3.05285,3.36679 10.29392,3.16675 13.2399,-0.36573 z m -8.76162,-0.67303 c -2.48691,-1.745233 -3.92698,-12.95296 -2.434,-18.943451 1.93252,-7.754612 6.14216,-7.050001 8.8478,1.481001 1.64405,5.183571 1.70438,8.110931 0.26802,12.989429 -1.29154,4.386315 -4.11348,6.275401 -6.68182,4.473021 z m -22.95155,-1.127925 c 0,-0.779154 -0.52395,-1.581415 -1.16441,-1.782779 -1.59296,-0.500803 -2.57152,-9.35875 -1.127,-10.200829 0.6235,-0.363499 2.40836,-0.359152 3.96621,0.0098 2.77539,0.657008 2.82163,0.798853 2.29121,7.030596 l -0.54124,6.359674 4.71143,0 c 3.29447,0 4.48359,-0.347612 3.95402,-1.155838 -0.76717,-1.170758 -0.85516,-2.433814 -1.26132,-18.094154 l -0.22689,-8.749999 -4.31226,0 c -3.59906,0 -4.22585,0.289419 -3.7898,1.750004 1.69506,5.678408 1.84964,8.253154 0.4999,8.324308 -0.77522,0.04092 -2.483,0.26305 -3.795,0.493727 -2.1804,0.383366 -2.38546,0.04036 -2.38546,-3.990977 0,-2.493649 0.5424,-4.580914 1.24798,-4.802736 2.95541,-0.929205 -0.73664,-2.774329 -5.55132,-2.774329 -3.94958,0 -5.23846,0.369062 -5.23846,1.500005 0,0.824998 0.671,1.500006 1.49106,1.500006 0.89164,0 1.30278,0.703492 1.02278,1.749987 -0.25762,0.962513 -0.072,5.933834 0.41231,11.0474 0.67917,7.169391 0.56911,9.541338 -0.48091,10.363296 -2.29724,1.798253 -0.44973,2.8393 5.03871,2.8393 3.81271,0 5.23846,-0.38558 5.23846,-1.416667 z M 282.78977,65.531616 c 0.0509,-1.03765 0.50411,-0.628871 1.14852,1.03518 1.05457,2.723399 3.36465,3.633569 4.56659,1.79922 0.34266,-0.522936 0.68543,-2.517386 0.76177,-4.432113 l 0.13877,-3.481334 2.02826,2.432112 c 2.06993,2.482102 5.05494,3.28896 5.05494,1.366374 0,-1.682824 -2.17023,-5.150741 -5.45644,-8.719054 -1.66387,-1.80663 -3.02516,-3.913816 -3.02516,-4.682604 0,-1.360067 -3.9166,-3.171745 -4.88403,-2.259206 -0.2659,0.2508 -0.69179,1.476509 -0.94645,2.723808 -0.25477,1.247307 -1.43244,4.022055 -2.61732,6.166116 -2.07046,3.746799 -2.88014,9.818655 -1.48469,11.134839 1.11266,1.049485 4.62565,-1.247685 4.71524,-3.083338 z m 47.36024,3.154895 c 3.75375,-0.948826 2.78303,-2.530693 -1.12817,-1.838603 -2.52116,0.446123 -3.90545,0.176466 -4.90078,-0.954685 -1.81782,-2.066075 0.21757,-4.576414 3.71071,-4.576414 1.35197,0 2.75303,-0.450005 3.1134,-0.999995 1.10429,-1.68538 -4.99261,-1.120769 -7.07282,0.654977 -2.45755,2.097755 -2.50166,5.936434 -0.0838,7.264915 2.17522,1.195019 3.14244,1.263408 6.36121,0.449805 z m 11.42589,-2.41351 c 0.37617,-0.574097 0.20802,-1.586591 -0.37373,-2.249997 -0.58173,-0.663407 -1.21911,-2.556197 -1.41653,-4.206193 -0.46478,-3.885518 -2.55762,-2.947483 -2.23107,0.999997 0.13644,1.649987 0.28539,3.787502 0.33088,4.749999 0.0901,1.906584 2.59039,2.385034 3.69045,0.706194 z m 10.21599,-5.286057 c -0.28487,-3.118638 -0.0138,-3.670142 1.80383,-3.670142 1.1765,0 2.43602,-0.453178 2.79894,-1.007067 1.05669,-1.612735 -2.56474,-2.36897 -6.66751,-1.392301 -4.25597,1.013133 -5.92292,3.399372 -2.37463,3.399372 1.24923,0 1.99,0.429304 1.64617,0.954006 -0.97189,1.483272 0.61003,6.178064 1.9407,5.759683 0.67609,-0.21256 1.04333,-1.954335 0.8525,-4.043551 z m 51.77705,1.829856 c 0,-1.999992 0.53009,-2.499986 2.65049,-2.499986 3.58254,0 3.37791,-1.763226 -0.26503,-2.283761 -2.00284,-0.286176 -1.4774,-0.46349 1.6786,-0.566423 5.78086,-0.188531 5.53871,-2.506625 -0.31,-2.968048 -4.97212,-0.392275 -5.51368,0.118133 -6.43774,6.068222 -0.61991,3.991601 -0.46448,4.749999 0.97304,4.749999 1.11788,0 1.71064,-0.866264 1.71064,-2.500003 z m -34.09713,-0.820619 c -0.17727,-1.276356 0.54229,-3.565396 1.59921,-5.086767 2.4094,-3.468536 1.75378,-4.224208 -1.5055,-1.734929 -2.27614,1.738455 -2.71558,1.773006 -4.95409,0.389528 -3.84069,-2.373564 -4.14413,-0.588988 -0.46406,2.728238 2.01894,1.819799 3.07915,3.587587 2.70426,4.508973 -0.40001,0.983146 0.0107,1.515575 1.16304,1.515575 1.24732,0 1.68317,-0.694013 1.45714,-2.320618 z m 27.52389,1.120621 c 0.69972,-0.659995 1.27223,-2.858923 1.27223,-4.886504 0,-3.392988 -0.27427,-3.725094 -3.44565,-4.171371 -4.70708,-0.662379 -8.02954,0.706772 -8.8072,3.629363 -1.07982,4.058248 1.13696,6.628509 5.71692,6.628509 2.19526,0 4.56396,-0.540003 5.2637,-1.199997 z m -7.51407,-1.420754 c -1.24988,-1.178909 -0.85071,-5.131105 0.56975,-5.640848 0.72888,-0.261584 2.4323,-0.08751 3.78534,0.386817 3.45784,1.212185 2.80837,5.26175 -0.90944,5.670697 -1.47962,0.162749 -3.03017,-0.02478 -3.44565,-0.416666 z m 61.39401,-3.379242 1.18786,-5.500006 0.40244,5.000004 c 0.33853,4.206825 0.73876,4.999996 2.52276,4.999996 3.5205,0 3.20901,-5.088085 -0.76208,-12.444355 -1.91324,-3.544391 -4.01806,-6.60147 -4.67728,-6.793512 -0.65924,-0.192043 -1.51112,1.221734 -1.893,3.141718 -0.46373,2.331549 -2.31674,4.957456 -5.57973,7.906855 -4.86495,4.397508 -5.34405,6.689303 -1.39819,6.689303 1.09879,0 2.72376,-0.977756 3.61125,-2.17279 1.53985,-2.073617 1.58395,-2.001135 0.96637,1.588597 -0.60759,3.531662 -0.49214,3.740687 1.89226,3.422769 2.14818,-0.286414 2.72248,-1.18604 3.72734,-5.838579 z m -4.30039,-3.293135 c 0.39811,-0.986226 0.99097,-1.541227 1.31741,-1.233336 0.32643,0.30789 4.2e-4,1.114794 -0.7239,1.793137 -1.04706,0.980259 -1.16888,0.865399 -0.59351,-0.559801 z M 287.81269,44.991397 c -0.13773,-0.646024 0.34349,-2.187095 1.06941,-3.424591 1.4106,-2.404633 0.37924,-3.033096 -1.72323,-1.049993 -1.56445,1.475591 -1.73155,7.185794 -0.18397,6.283599 0.5986,-0.348925 0.9756,-1.162992 0.83779,-1.809015 z m 64.34465,310.290883 c -10.50542,-2.08683 -17.53106,-4.09062 -25.22017,-7.19302 -7.56199,-3.05112 -5.30301,-3.23896 3.07787,-0.25593 9.03769,3.2168 20.36975,6.07284 27.7002,6.98133 4.69234,0.58152 5.56606,0.43962 5.56606,-0.90403 0,-1.12526 -1.01292,-1.60278 -3.44566,-1.62425 -2.9429,-0.026 -3.16354,-0.18512 -1.51227,-1.09086 1.38494,-0.75964 2.79521,-0.72369 4.97191,0.12674 1.72378,0.67347 3.63978,0.82674 4.42795,0.35423 0.76408,-0.45812 6.93031,-0.88507 13.70267,-0.9488 10.68597,-0.10058 12.29748,0.0959 12.1923,1.48663 -0.13772,1.82195 4.93366,2.12708 13.09159,0.78766 2.60205,-0.42722 4.45019,-0.51181 4.10679,-0.18797 -0.3433,0.32383 -5.98886,1.46943 -12.54578,2.54579 -15.34875,2.51959 -33.19013,2.48961 -46.11346,-0.0775 z m 47.70842,-4.95403 c -0.36174,-0.55204 0.0318,-0.74272 0.89036,-0.43182 0.84604,0.30618 1.85312,0.0759 2.23808,-0.51146 0.38497,-0.58749 0.11514,-1.06818 -0.59954,-1.06818 -0.71478,0 -1.04971,-0.23559 -0.74448,-0.52353 1.10326,-1.04062 3.89126,0.72354 3.32871,2.1063 -0.65859,1.61866 -4.14209,1.91072 -5.11313,0.42869 z m 5.82358,-3.01145 c -1.37052,-0.83541 -1.34254,-0.9715 0.2025,-0.98469 0.98599,-0.008 2.08764,0.43468 2.448,0.98469 0.82929,1.2656 -0.5742,1.2656 -2.6505,0 z m -90.02507,-3.89969 -2.55859,-1.85521 2.55859,-1.28626 c 2.3143,-1.16353 2.42309,-1.13142 1.13971,0.33624 -1.23449,1.41173 -1.06242,1.70689 1.32525,2.27212 1.5092,0.35728 2.74401,1.05081 2.74401,1.54119 0,1.45589 -2.47026,0.97783 -5.20897,-1.00808 z m -11.79071,-7.23598 c -4.35329,-2.82464 -11.73176,-8.74748 -16.39664,-13.16187 -8.32832,-7.88119 -8.65794,-8.87847 -0.59426,-1.798 9.95328,8.73963 19.88344,16.03319 23.65363,17.37328 1.48948,0.52942 2.74103,2.72226 1.55382,2.72226 -0.16591,0 -3.86337,-2.31105 -8.21655,-5.13567 z m -29.55894,-26.99496 c -4.23359,-5.01528 -5.80958,-8.2717 -2.90134,-5.99514 1.49223,1.16811 8.31971,11.12577 7.62846,11.12577 -0.21787,0 -2.34506,-2.30879 -4.72712,-5.13063 z m 202.4082,0.3755 c 0,-0.54999 0.71564,-1.56018 1.5903,-2.24488 0.88718,-0.69442 1.5903,-0.80272 1.5903,-0.24489 0,0.54999 -0.71564,1.5602 -1.5903,2.2449 -0.88708,0.69442 -1.5903,0.80272 -1.5903,0.24487 z M 255.6273,276.25027 c -0.38432,-0.5866 -0.47148,-1.28101 -0.1936,-1.54315 0.278,-0.26213 0.78783,0.21781 1.13316,1.06653 0.71691,1.76211 0.10602,2.07207 -0.93956,0.47662 z m -1.9443,-6.05848 c -0.88378,-4.16825 -0.0276,-4.97613 0.92768,-0.875 0.40255,1.72865 0.5109,3.35146 0.24076,3.60623 -0.27003,0.25477 -0.79588,-0.97429 -1.16844,-2.73123 z m 246.78928,-5.98296 c 0.39047,-1.86562 0.98959,-5.98674 1.33129,-9.15802 0.34181,-3.17129 1.069,-6.02692 1.61607,-6.34584 0.5847,-0.34084 0.78476,1.00544 0.48514,3.26599 -1.51588,11.44051 -2.13768,14.46129 -3.09112,15.01709 -0.6657,0.38808 -0.7909,-0.6312 -0.34138,-2.77922 z m -249.4049,-5.89204 c 0,-1.375 0.24066,-1.93749 0.53476,-1.24999 0.2941,0.6875 0.2941,1.81248 0,2.49998 -0.2941,0.68752 -0.53476,0.125 -0.53476,-1.24999 z m -0.98164,-7.99999 c 0,-1.92501 0.21819,-2.71251 0.48483,-1.75001 0.26674,0.9625 0.26674,2.5375 0,3.5 -0.26664,0.9625 -0.48483,0.175 -0.48483,-1.74999 z m 253.30951,-9.00001 c 0,-1.375 0.24067,-1.93751 0.53477,-1.25001 0.2941,0.68751 0.2941,1.81251 0,2.50001 -0.2941,0.6875 -0.53477,0.12499 -0.53477,-1.25 z m 3.21993,-10.5 c 0.0213,-1.65 0.25922,-2.20394 0.52799,-1.23097 0.26876,0.97297 0.25116,2.32297 -0.0392,3.00001 -0.29039,0.67703 -0.51038,-0.11904 -0.48876,-1.76904 z M 231.43299,213.8168 c -0.71797,-1.7648 -0.57167,-1.79301 2.87972,-0.55531 2.52029,0.90381 2.61964,0.79559 2.29491,-2.49999 -0.18672,-1.89459 0.0901,-3.44472 0.61522,-3.44472 0.52512,0 0.95471,1.80001 0.95471,4.00001 0,3.74492 -0.19561,4 -3.06715,4 -1.74838,0 -3.32957,-0.64497 -3.67741,-1.49999 z M 489.7264,200.4144 c -1.13686,-3.31138 -1.70174,-5.80772 -1.25517,-5.54739 1.09773,0.63994 4.50595,10.45172 3.84651,11.07373 -0.28827,0.2719 -1.45438,-2.21496 -2.59134,-5.52634 z m -230.80675,-9.39073 c 0.39811,-0.98624 0.99098,-1.54124 1.31742,-1.23334 0.32642,0.30788 4.2e-4,1.11479 -0.72392,1.79313 -1.04704,0.98026 -1.16887,0.8654 -0.5935,-0.55979 z m 219.97032,-8.35997 c -1.22187,-2.1158 -3.17275,-5.34134 -4.33527,-7.16787 -1.1625,-1.82652 -1.689,-3.07343 -1.17004,-2.77092 1.41124,0.82267 8.79172,12.78133 8.2206,13.31998 -0.27152,0.25614 -1.4934,-1.26541 -2.71529,-3.38119 z m -216.3278,0.65309 c 0,-0.55 0.50532,-1 1.12277,-1 0.61755,0 0.8279,0.45 0.46755,1 -0.36037,0.55 -0.86565,1.00001 -1.12276,1.00001 -0.2571,0 -0.46756,-0.45001 -0.46756,-1.00001 z m 2.02511,-3.49999 c 1.83954,-3.39228 3.24272,-5.05418 3.25968,-3.86079 0.0106,0.62656 -0.96488,2.20156 -2.16396,3.5 -1.7135,1.85529 -1.94813,1.93255 -1.09572,0.36079 z m -14.20671,-14.51631 c 0.36631,-0.55897 1.06699,-0.78252 1.55723,-0.49677 1.46562,0.8544 4.26317,-0.58985 4.26317,-2.20092 0,-0.92249 -0.61226,-1.27837 -1.59029,-0.92438 -1.08172,0.39152 -1.59031,-0.054 -1.59031,-1.393 0,-1.41511 0.72041,-1.96863 2.56219,-1.96863 3.08212,0 3.81703,1.56015 2.47292,5.25 -0.83354,2.28834 -1.61777,2.75 -4.67125,2.75 -2.21571,0 -3.40579,-0.40267 -3.00366,-1.0163 z m -2.66121,-2.4837 c 0,-0.825 0.18757,-1.5 0.41666,-1.5 0.22922,0 0.69136,0.675 1.02691,1.5 0.33567,0.82499 0.14823,1.5 -0.41665,1.5 -0.56477,0 -1.02692,-0.67501 -1.02692,-1.5 z m 233.4563,-4.70001 c -0.69973,-0.65999 -1.27224,-3.09499 -1.27224,-5.4111 0,-3.44992 0.574,-4.6667 3.17572,-6.73153 2.7101,-2.1509 3.68156,-2.38736 6.62626,-1.61276 6.61862,1.74099 11.62734,10.34295 8.0094,13.75539 -0.69974,0.66002 -3.07288,1.20001 -5.27376,1.20001 -3.36932,0 -4.2601,-0.47157 -5.63804,-2.98493 -1.34231,-2.44828 -1.3966,-3.3472 -0.30226,-5 1.62655,-2.45669 4.30355,-2.59688 6.26038,-0.32784 1.28422,1.48923 1.22156,1.60455 -0.53466,0.98274 -2.1431,-0.75877 -4.90164,0.81251 -4.90164,2.79197 0,0.66936 1.19974,1.73263 2.66609,2.36282 2.24891,0.96646 2.99561,0.83508 4.77091,-0.83949 2.84686,-2.68519 2.6469,-5.56489 -0.59902,-8.62649 -3.26032,-3.07518 -7.1519,-2.63088 -10.81373,1.23463 -2.78939,2.94458 -2.90124,3.95026 -0.85144,7.65659 1.57524,2.84833 0.89735,3.64324 -1.32197,1.54999 z m -245.03475,-3.38332 c 0.0508,-1.16496 0.30205,-1.40191 0.64046,-0.60418 0.3063,0.72189 0.26866,1.58438 -0.0838,1.91668 -0.35229,0.3323 -0.60282,-0.25834 -0.55681,-1.3125 z m -12.80617,-27.05414 c 0,-0.51645 2.06611,-2.568 4.59141,-4.55897 2.52519,-1.99099 5.27207,-4.89876 6.10411,-6.46176 0.83203,-1.563 5.78234,-8.2418 11.00054,-14.84178 10.73114,-13.572654 19.46455,-27.013648 22.58356,-34.75672 1.16156,-2.883801 3.37144,-8.393286 4.91085,-12.243291 1.53942,-3.849995 3.78482,-8.124995 4.98984,-9.499998 l 2.1909,-2.500001 -2.15825,4 c -1.187,2.200008 -3.43866,7.825001 -5.0034,12.50001 -3.57563,10.681956 -6.06701,16.013099 -10.623,22.730749 -1.97994,2.919448 -3.59992,5.582261 -3.59992,5.917352 0,0.977171 -8.53844,12.614679 -11.26369,15.351889 -5.55471,5.57915 -9.01923,9.65558 -10.62363,12.5 -1.81051,3.20988 -13.09932,13.43282 -13.09932,11.86252 z m 81.14514,-72.486425 c 3.36402,-0.714954 4.89623,-1.805402 7.15636,-5.09308 2.42107,-3.521928 2.8758,-3.819868 2.8758,-1.884392 0,3.660462 -5.83184,8.122271 -10.44902,7.994288 l -3.86369,-0.107109 4.28055,-0.90973 z m -6.88971,-7.064658 c -2.61711,-2.649613 -2.61721,-2.715873 -0.0106,-5.669324 1.21817,-1.379163 2.7438,-2.118588 3.6754,-1.781374 2.53547,0.91772 1.8456,2.639271 -1.05776,2.639271 -3.13152,0 -3.54849,2.406624 -0.89586,5.17125 0.96498,1.005817 1.46074,1.828745 1.10154,1.828745 -0.35931,0 -1.62593,-0.98485 -2.81485,-2.188568 z m 9.33244,-2.94692 c 0.31805,-3.145718 -0.12958,-4.545297 -2.09933,-6.562906 -2.37208,-2.429843 -2.38227,-2.494798 -0.19348,-1.236948 4.06588,2.336667 5.956,8.614322 3.23488,10.744373 -1.05924,0.829212 -1.26016,0.201467 -0.94207,-2.944519 z m 123.00377,0.159283 -2.50292,-1.976234 2.90728,1.226226 c 1.599,0.674407 2.911,1.563719 2.91556,1.97621 0.0127,1.148063 -0.59902,0.922166 -3.31992,-1.226202 z m 5.4486,0.976197 c 0,-0.54999 0.65996,-0.999996 1.46667,-0.999996 1.65285,0 2.92627,-3.462545 2.05806,-5.596441 -0.31403,-0.77195 -1.83191,-1.464837 -3.37313,-1.539727 -2.41727,-0.117492 -2.48204,-0.194783 -0.47136,-0.562797 3.80198,-0.695896 6.7838,1.379573 6.21712,4.327265 -0.26908,1.39979 -1.04886,3.181055 -1.7328,3.958395 -1.42956,1.624738 -4.16456,1.896164 -4.16456,0.413301 z M 313.88524,41.864399 c -1.02638,-3.093189 -0.96647,-3.254062 0.81997,-2.201746 2.06612,1.217057 2.37389,2.443283 1.09105,4.346463 -0.51133,0.758606 -1.20641,-0.02154 -1.91102,-2.144717 z m -33.26752,-1.043663 c 2.48576,-3.184235 4.20868,-4.719285 4.20868,-3.749679 0,0.493418 -1.29758,1.988059 -2.88342,3.321441 -2.11552,1.778586 -2.46846,1.892643 -1.32526,0.428238 z m 137.79403,-1.385903 c 0,-0.550006 0.47708,-1.278113 1.06021,-1.61803 0.5831,-0.339924 1.0602,-0.16802 1.0602,0.38197 0,0.549997 -0.4771,1.278113 -1.0602,1.61803 -0.58313,0.339924 -1.06021,0.168021 -1.06021,-0.38197 z M 293.83813,36.316804 c 1.16621,-0.472691 3.07457,-0.8462 4.24079,-0.830029 1.7046,0.02361 1.60059,0.186391 -0.5301,0.830029 -3.62504,1.095003 -6.41231,1.095003 -3.71069,0 z"
       id="path4138"
       inkscape:connector-curvature="0" />
  </g>
</svg>
