<?xml version="1.0" encoding="utf-8"?>
<svg viewBox="0 0 500 500" xmlns="http://www.w3.org/2000/svg">
  <defs>
    <linearGradient id="1" gradientUnits="userSpaceOnUse" y1="653.96" x2="0" y2="301.3">
      <stop stop-color="#4965b6" offset="0"/>
      <stop offset="1" stop-color="#8d9dcc"/>
    </linearGradient>
    <clipPath id="2">
      <path transform="matrix(15.33333 0 0 11.5 415-125.5)" d="m-24 13c0 1.105-.672 2-1.5 2-.828 0-1.5-.895-1.5-2 0-1.105.672-2 1.5-2 .828 0 1.5.895 1.5 2" fill="#1890d0"/>
    </clipPath>
  </defs>
  <rect x="-18.156" y="-15.456" width="528.932" height="532.322" style="stroke: rgb(0, 0, 0); fill: rgb(34, 34, 34);"/>
  <g transform="matrix(0.172129, 0, 0, 0.166935, 9.090614, 9.867831)">
    <g>
      <g>
        <path d="M708.6,484.4c0-38.2-13.7-64.6-25.5-85.2c-15.7-25.5-30.4-47-30.4-72.5c0-28.4,21.5-54.8,51.9-54.8c1.4,0,2.7,0.2,4,0.2C653.7,221.7,580.5,191,500,191c-108,0-202.9,55.4-258.2,139.3c7.3,0.2,14.1,0.4,19.9,0.4c32.3,0,82.4-3.9,82.4-3.9c16.6-1,18.6,23.5,2,25.5c0,0-16.7,2-35.4,2.9l112.5,334.7L490.8,487l-48.1-131.9c-16.6-1-32.4-2.9-32.4-2.9c-16.6-1-14.7-26.4,2-25.5c0,0,51,3.9,81.4,3.9c32.3,0,82.4-3.9,82.4-3.9c16.7-1,18.6,23.5,2,25.5c0,0-16.8,2-35.4,2.9l111.7,332.2l30.8-103C698.4,541.6,708.6,510.8,708.6,484.4z" style="fill: rgb(255, 255, 255);"/>
        <path d="M191,500c0,122.3,71.1,228,174.2,278.1L217.8,374.2C200.6,412.7,191,455.2,191,500z" style="fill: rgb(255, 255, 255);"/>
        <path d="M505.4,527l-92.7,269.4c27.7,8.1,57,12.6,87.3,12.6c36,0,70.5-6.2,102.6-17.5c-0.8-1.3-1.6-2.7-2.2-4.3L505.4,527z" style="fill: rgb(255, 255, 255);"/>
        <path d="M655.3,767.1C747.2,713.5,809,614,809,500c0-53.7-13.7-104.2-37.9-148.3c1.3,9.8,2.1,20.4,2.1,31.8c0,31.4-5.8,66.6-23.5,110.7L655.3,767.1z" style="fill: rgb(255, 255, 255);"/>
        <path d="M500,10C229.4,10,10,229.4,10,500c0,270.6,219.4,490,490,490s490-219.4,490-490C990,229.4,770.6,10,500,10z M500,843.7c-189.5,0-343.7-154.2-343.7-343.7c0-189.5,154.2-343.7,343.7-343.7c189.5,0,343.7,154.2,343.7,343.7C843.7,689.5,689.5,843.7,500,843.7z" style="fill: rgb(255, 255, 255);"/>
      </g>
    </g>
    <g/>
    <g/>
    <g/>
    <g/>
    <g/>
    <g/>
    <g/>
    <g/>
    <g/>
    <g/>
    <g/>
    <g/>
    <g/>
    <g/>
    <g/>
  </g>
  <polygon fill="#E44D26" points="218.182 296.274 208.048 199 319.405 199 309.26 296.259 263.658 307.078"/>
  <polygon fill="#F16529" points="263.726 298.808 300.574 290.065 309.244 206.952 263.726 206.952"/>
  <polygon fill="#EBEBEB" points="263.726 243.031 245.279 243.031 244.005 230.814 263.726 230.814 263.726 218.884 263.678 218.884 228.77 218.884 229.103 222.084 232.53 254.96 263.726 254.96"/>
  <polygon fill="#EBEBEB" points="263.726 274.015 263.665 274.029 248.139 270.441 247.147 260.926 239.602 260.926 233.152 260.926 235.106 279.658 263.662 286.443 263.726 286.427"/>
  <path d="M 218.408 172.564 L 225.493 172.564 L 225.493 178.554 L 231.974 178.554 L 231.974 172.564 L 239.058 172.564 L 239.058 190.703 L 231.975 190.703 L 231.975 184.629 L 225.493 184.629 L 225.493 190.703 L 218.409 190.703 L 218.409 172.564 Z" style="fill: rgb(255, 255, 255);"/>
  <path d="M 248.375 178.579 L 242.138 178.579 L 242.138 172.564 L 261.7 172.564 L 261.7 178.579 L 255.46 178.579 L 255.46 190.703 L 248.375 190.703 L 248.375 178.579 Z" style="fill: rgb(255, 255, 255);"/>
  <path d="M 264.805 172.564 L 272.191 172.564 L 276.735 178.938 L 281.275 172.564 L 288.665 172.564 L 288.665 190.703 L 281.609 190.703 L 281.609 181.713 L 276.735 188.163 L 276.613 188.163 L 271.736 181.713 L 271.736 190.703 L 264.805 190.703 L 264.805 172.564 Z" style="fill: rgb(255, 255, 255);"/>
  <path d="M 292.19 172.564 L 299.278 172.564 L 299.278 184.708 L 309.24 184.708 L 309.24 190.703 L 292.19 190.703 L 292.19 172.564 Z" style="fill: rgb(255, 255, 255);"/>
  <polygon fill="#FFFFFF" points="263.678 243.031 263.678 254.96 280.845 254.96 279.226 270.433 263.678 274.025 263.678 286.437 292.258 279.658 292.467 277.643 295.742 246.234 296.082 243.031 292.326 243.031"/>
  <polygon fill="#FFFFFF" points="263.678 218.884 263.678 226.293 263.678 230.785 263.678 230.814 297.307 230.814 297.307 230.814 297.351 230.814 297.631 228.132 298.266 222.084 298.599 218.884"/>
  <g transform="matrix(0.390278, 0, 0, 0.380526, 533.270386, 235.226166)">
    <circle r="173.45" cy="478.75" cx="-325.89" fill="url(#1)" transform="matrix(1.24254 0 0 1.24254 82.65-144.23)"/>
    <g clip-path="url(#2)" fill="#fff" fill-opacity=".847" transform="matrix(9.99174 0 0 9.99174-565.81 219.28)">
      <g fill="#fff" fill-opacity=".847">
        <path d="m10 29.801l2.207-10.785h5.105c2.207.137 3.309 1.199 3.309 3.063 0 3.195-2.621 5.05-4.965 4.926h-2.484l-.555 2.797h-2.621m3.727-4.793l.691-3.992h1.793c.969 0 1.656.398 1.656 1.199-.141 2.262-1.242 2.66-2.484 2.793" fill-rule="evenodd"/>
        <path d="m19.797 27l2.207-10.781h2.621l-.551 2.793h2.484c2.207.137 3.035 1.199 2.758 2.531l-.965 5.457h-2.762l.969-4.926c.137-.664.137-1.066-.832-1.066h-2.066l-1.242 5.988h-2.621"/>
        <path d="m28.13 29.801l2.211-10.785h5.105c2.207.137 3.309 1.199 3.309 3.063 0 3.195-2.621 5.05-4.969 4.926h-2.484l-.551 2.797m1.105-4.793l.691-3.992h1.793c.965 0 1.652.398 1.652 1.199-.137 2.262-1.238 2.66-2.484 2.793" fill-rule="evenodd"/>
      </g>
    </g>
  </g>
  <rect x="417.159" y="64.529" width="41.196" height="84.073" style="fill: rgb(255, 255, 255);"/>
  <g id="layer1" transform="matrix(1, 0, 0, 1, 15.169273, -153.266861)">
    <g id="g8487" transform="translate(-202.57553,-38.463711)">
      <g transform="matrix(1.25,0,0,1.25,-2.5065195,174.1722)" id="g3652">
        <path style="opacity: 0.85; fill: rgb(255, 255, 255);" d="m 512.87,26.15 c 1.4,-0.02 2.81,-0.04 4.22,-0.05 0.02,0.78 0.05,2.33 0.07,3.11 -1.44,0 -2.88,-0.01 -4.31,-0.01 0,-0.76 0.02,-2.28 0.02,-3.05 z" id="path3654"/>
      </g>
      <path id="path3664" d="m 531.79348,207.6597 c 3.2125,0.025 6.4375,0.0375 9.675,0.05 -0.275,5.75 0.85,11.725 -0.775,17.325 -2.1,4.025 -7.325,3.2375 -11.0875,3.3125 -0.15,-1.275 -0.3,-2.55 -0.4375,-3.825 2.1625,-0.175 4.5125,0.25 6.5,-0.8625 1.2875,-3.9875 0.7125,-8.25 0.3875,-12.35 -1.1,0.025 -3.2875,0.05 -4.3875,0.0625 0.0375,-0.925 0.0875,-2.7875 0.125,-3.7125 z" style="fill: rgb(255, 255, 255);"/>
      <path id="path3666" d="m 596.15598,209.2347 c 3.7875,-2.925 8.7625,-1.725 12.975,-0.5875 -0.0125,1.1125 -0.025,3.3375 -0.025,4.45 -3.2625,-1.3125 -9.4625,-4.175 -10.2875,1.225 3.0875,0.9375 6.35,1.4875 9.15,3.1625 2.975,2.425 2.1375,7.9375 -1.2875,9.6 -3.9,2.3125 -8.525,1.05 -12.6375,0.2125 -0.2375,-1.7125 -0.475,-3.4125 -0.6875,-5.125 3.4625,1.525 10.475,5.1375 11.5125,-0.7 -3.475,-1.3125 -7.8,-1.5 -10.325,-4.5 -1.1125,-2.55 -0.925,-6.1 1.6125,-7.7375 z" style="fill: rgb(255, 255, 255);"/>
      <path id="path3668" d="m 665.26848,208.3722 c 1.4625,0 2.9375,0 4.425,0 0.0375,1.4125 0.0875,2.825 0.15,4.2375 1.125,0.0125 3.3875,0.0375 4.525,0.05 0.025,0.8625 0.0625,2.575 0.0875,3.425 -1.15,-0.0125 -3.45,-0.0375 -4.6,-0.0625 0.0625,2.8625 -0.675,5.9875 0.7625,8.625 1.075,0.1125 3.225,0.325 4.3,0.4375 -0.1125,5.2625 -6.1125,2.875 -9.2875,2.05 -0.2875,-3.2125 -0.425,-6.425 -0.425,-9.65 -0.8125,-1.1375 -1.625,-2.2875 -2.425,-3.425 0.6125,-0.5625 1.8375,-1.6875 2.45,-2.25 0.0125,-0.8625 0.025,-2.5875 0.0375,-3.4375 z" style="fill: rgb(255, 255, 255);"/>
      <path id="path3670" d="m 545.36848,212.7722 c 4.075,-0.2125 9.775,-1.725 12.3375,2.4875 0.9125,4.175 0.3375,8.5125 0.475,12.7625 -1.825,-0.1625 -3.65,-0.3375 -5.4625,-0.5 -2.075,0.175 -4.5125,1.7125 -6.425,0.3375 -3.175,-1.525 -3.225,-7.15 0.1125,-8.5125 2.425,-1 5.075,-1.175 7.6125,-1.775 -2.4125,-2.5 -5.8375,-1.55 -8.875,-1.225 0.0625,-0.9 0.175,-2.6875 0.225,-3.575 m 3.975,8.5875 c -0.1375,1.2125 -0.2625,2.425 -0.375,3.65 1.3875,-0.075 2.775,-0.1375 4.175,-0.2125 0.1,-1.3125 0.2125,-2.625 0.325,-3.9375 -1.3875,0.1625 -2.7625,0.3375 -4.125,0.5 z" style="fill: rgb(255, 255, 255);"/>
      <path id="path3672" d="m 560.04348,212.3347 c 1.2,0.2375 3.6125,0.7125 4.8125,0.95 1.2625,2.9 2.125,5.95 3.35,8.875 1.025,-3.125 1.975,-6.2875 2.9,-9.45 1.2,-0.025 3.6125,-0.0625 4.8125,-0.0875 -1.7,5.3625 -3.6,10.6625 -5.725,15.8875 -1.65,-0.2125 -3.275,-0.5625 -4.85,-1.025 -2.275,-4.85 -3.775,-10.025 -5.3,-15.15 z" style="fill: rgb(255, 255, 255);"/>
      <path id="path3674" d="m 577.46848,216.3222 c 0.35,-1.1875 0.75,-2.375 1.1875,-3.5375 3.875,-0.5625 9.125,-1.3875 11.7875,2.2375 0.9125,4.325 0.35,8.8 0.4375,13.1875 -1.8375,-0.25 -3.6625,-0.5 -5.4875,-0.75 -3.275,1.7375 -8.7375,1.1125 -8.6625,-3.5 -0.625,-5.475 6.2125,-5.55 9.925,-6.275 -2.2375,-3 -6.1125,-1.4125 -9.1875,-1.3625 m 4.525,5.15 c -0.1375,1.125 -0.2625,2.2625 -0.3875,3.3875 1.375,0.0375 2.75,0.075 4.1375,0.1 0.125,-1.3875 0.25,-2.7625 0.375,-4.15 -1.375,0.2125 -2.75,0.4375 -4.125,0.6625 z" style="fill: rgb(255, 255, 255);"/>
      <path id="path3676" d="m 610.90598,220.4097 c -0.3875,-6.8 8.2625,-10.3625 13.4375,-6.7375 0.125,0.9625 0.3625,2.9 0.475,3.8625 -2.375,-0.75 -4.8125,-2.45 -7.3625,-1.3 -2.7,2.575 -2.1375,9.1125 2.4375,8.725 1.2625,-0.4 3.775,-1.2 5.0375,-1.6 -0.225,1.075 -0.6625,3.225 -0.875,4.2875 -5.4125,2.55 -13.575,-0.4625 -13.15,-7.2375 z" style="fill: rgb(255, 255, 255);"/>
      <path id="path3678" d="m 626.89348,212.2847 c 1.875,0.5 3.7875,1 5.675,1.5375 1.4125,-0.5125 2.8375,-1.0125 4.275,-1.525 0.0625,1.2 0.2125,3.6 0.2875,4.8 -1.8,0.0875 -3.6,0.175 -5.375,0.2625 -0.125,3.5875 -0.1625,7.1625 -0.1875,10.75 -1.175,0.0125 -3.5375,0.025 -4.7125,0.0375 -0.0625,-5.2875 -0.075,-10.575 0.0375,-15.8625 z" style="fill: rgb(255, 255, 255);"/>
      <path id="path3680" d="m 647.21848,212.6222 c 3.45,0.775 6.925,0.5375 10.3625,-0.15 5.3875,1.1125 5.5125,8.75 3.4625,12.75 -1.7,3.45 -5.8625,3.125 -9.075,2.95 0.025,1.825 0.05,3.6375 0.075,5.4625 -1.2,-0.0125 -3.625,-0.0375 -4.8375,-0.0625 0,-6.975 -0.0125,-13.9625 0.0125,-20.95 m 4.875,3.675 c -0.05,2.9125 -0.075,5.8375 -0.05,8.75 1.55,-0.425 3.55,-0.125 4.725,-1.4625 0.875,-2.375 0.1875,-4.9375 0.0125,-7.3875 -1.5625,0.025 -3.125,0.0625 -4.6875,0.1 z" style="fill: rgb(255, 255, 255);"/>
      <g transform="matrix(1.25,0,0,1.25,-2.5065195,174.1722)" id="g3688">
        <path d="m 513.23,30.79 c 0.89,0 2.67,0 3.55,0 0.06,4.13 0.06,8.25 0,12.38 -0.89,0 -2.66,0 -3.55,0 -0.07,-4.12 -0.07,-8.25 0,-12.38 z" id="path3690" style="fill: rgb(255, 255, 255);"/>
      </g>
      <g transform="matrix(1.25,0,0,1.25,-2.5065195,174.1722)" id="g3768">
        <path style="fill:#d6ba32" d="m 439.03,51.2 c 9.97,-0.42 19.96,0.12 29.94,-0.05 11.01,-0.35 22.01,-0.06 33.03,-0.02 8.74,0.02 17.48,-0.04 26.22,0.03 -2.75,30.33 -5.52,60.66 -8.07,91.01 -11.71,3.33 -23.43,6.61 -35.14,9.92 -1.5,0.62 -3.04,0.04 -4.48,-0.35 -11.13,-3.2 -22.26,-6.37 -33.41,-9.45 -2.9,-30.34 -5.63,-60.71 -8.09,-91.09 m 44.78,7.91 c -0.41,14.96 -0.06,29.92 -0.18,44.88 0.11,13.68 -0.2,27.37 0.16,41.05 9.84,-2.32 19.55,-5.17 29.26,-7.98 2.44,-25.97 4.82,-51.94 6.86,-77.94 -12.03,-0.12 -24.07,0.02 -36.1,-0.01 m -12.52,58.42 c -5.78,-1.58 -11.49,-3.4 -17.35,-4.65 -0.17,3.48 -0.11,6.96 0.29,10.42 8.58,2.09 16.98,4.84 25.57,6.89 0.06,-19.81 -0.03,-39.63 0.04,-59.44 -2.8,-0.07 -5.6,-0.11 -8.4,-0.17 -0.32,15.64 -0.02,31.3 -0.15,46.95 z" id="path3770"/>
      </g>
      <g transform="matrix(1.25,0,0,1.25,-2.5065195,174.1722)" id="g3796">
        <path style="fill:#ffda3e" d="m 483.81,59.11 c 12.03,0.03 24.07,-0.11 36.1,0.01 -2.04,26 -4.42,51.97 -6.86,77.94 -9.71,2.81 -19.42,5.66 -29.26,7.98 -0.36,-13.68 -0.05,-27.37 -0.16,-41.05 0.12,-14.96 -0.23,-29.92 0.18,-44.88 m 3.37,11.63 c 0.04,12.88 0.05,25.77 0,38.65 5.88,-0.95 11.74,-2.04 17.6,-3.11 -0.09,3 -0.21,6 -0.34,9 -5.71,1.52 -11.41,3.09 -17.15,4.5 -0.09,3.46 -0.1,6.92 -0.07,10.39 7.23,-1.62 14.35,-3.66 21.53,-5.47 0.9,-0.42 2.63,-0.37 2.55,-1.78 0.87,-9.26 1.41,-18.56 2.25,-27.84 -5.95,0.49 -11.84,1.49 -17.79,1.9 -0.05,-5.26 -0.06,-10.52 0.02,-15.78 6.26,0 12.51,0 18.77,0.01 0.4,-3.51 0.75,-7.03 1.02,-10.55 -9.46,0.04 -18.93,-0.09 -28.39,0.08 z" id="path3798"/>
      </g>
      <path id="path3806" d="m 586.60598,321.0847 c 0.1625,-19.5625 -0.2125,-39.1375 0.1875,-58.6875 3.5,0.075 7,0.125 10.5,0.2125 -0.0875,24.7625 0.025,49.5375 -0.05,74.3 -10.7375,-2.5625 -21.2375,-6 -31.9625,-8.6125 -0.5,-4.325 -0.575,-8.675 -0.3625,-13.025 7.325,1.5625 14.4625,3.8375 21.6875,5.8125 z" style="fill: rgb(255, 255, 255);"/>
    </g>
  </g>
  <g transform="matrix(0.228886, 0, 0, 0.219074, 2.793, 294.482941)">
    <g>
      <path fill="#EB5E29" d="M187.936,534.725l-24.349-43.43c0,0,38.497-17.768,77.652-7.24c0,0,1.317,23.69,21.056,33.556 c0,0,19.743,11.191,38.497,0c0,0,29.617,32.901,31.593,71.734h-48.698c0,0-0.658-30.93-35.536-51.332 C248.152,538.013,222.15,520.254,187.936,534.725z"/>
      <path fill="#E41523" d="M310.658,482.067c0,15.84-12.839,28.683-28.683,28.683c-15.839,0-28.683-12.844-28.683-28.683 c0-15.839,12.844-28.683,28.683-28.683C297.819,453.384,310.658,466.228,310.658,482.067z"/>
      <path fill="#F9B21A" d="M170.216,656.534l-26.273,42.293c0,0-34.149-25.128-43.838-64.503c0,0,20.109-12.585,19.214-34.64 c0,0,0.267-22.692-18.59-33.711c0,0,14.51-41.82,47.553-62.299l23.519,42.637c0,0-26.768,15.512-27.784,55.903 C144.016,602.215,141.016,633.567,170.216,656.534z"/>
      <path fill="#EB5E29" d="M64.836,574.496c13.873-7.644,31.318-2.6,38.97,11.269c7.649,13.868,2.608,31.317-11.264,38.97 c-13.872,7.653-31.322,2.608-38.97-11.269C45.923,599.598,50.963,582.148,64.836,574.496z"/>
      <path fill="#E41523" d="M283.727,610.169l49.778,1.033c0,0-4.196,42.19-33.121,70.598c0,0-21.091-10.872-39.603,1.145 c0,0-19.653,11.337-19.52,33.177c0,0-43.373,8.849-77.842-9.133l24.689-41.975c0,0,26.992,15.116,62.256-4.605 C250.365,660.408,278.858,647.005,283.727,610.169z"/>
      <path fill="#F9B21A" d="M266.901,742.653c-13.653-8.032-18.215-25.61-10.184-39.272c8.031-13.653,25.61-18.215,39.267-10.184 c13.658,8.031,18.216,25.61,10.184,39.271C298.137,746.122,280.558,750.684,266.901,742.653z"/>
    </g>
    <g>
      <path d="M801.752,651.214c0,0-0.685,17.027,16.347,17.027c0,0,15.216-0.904,14.759-16.804v-52.683c0,0,0.457-29.742,23.841-28.838 c0,0,23.617-0.224,22.709,28.158v53.82c0,0-0.908,15.667,15.443,15.891c0,0,15.211-0.223,15.211-15.891v-54.956 c0,0,1.365-55.86-53.364-55.404c0,0-54.268-3.633-54.495,56.093L801.752,651.214z" style="fill: rgb(255, 255, 255);"/>
      <path d="M1041.686,558.518c0,0-0.685-17.028,16.347-17.028c0,0,15.216,0.913,14.759,16.804v52.684c0,0,0.457,29.742,23.841,28.838 c0,0,23.617,0.224,22.709-28.158v-53.82c0,0-0.908-15.667,15.439-15.891c0,0,15.215,0.223,15.215,15.891v54.956 c0,0,1.365,55.86-53.364,55.404c0,0-54.268,3.633-54.495-56.084L1041.686,558.518z" style="fill: rgb(255, 255, 255);"/>
      <path d="M659.734,558.518c0,0-0.684-17.028,16.347-17.028c0,0,15.216,0.913,14.759,16.804v52.684c0,0,0.456,29.742,23.845,28.838 c0,0,23.613,0.224,22.705-28.158v-53.82c0,0-0.908-15.667,15.443-15.891c0,0,15.211,0.223,15.211,15.891v54.956 c0,0,1.364,55.86-53.36,55.404c0,0-54.272,3.633-54.5-56.084L659.734,558.518z" style="fill: rgb(255, 255, 255);"/>
      <path d="M380.184,558.518c0,0-0.68-17.028,16.351-17.028c0,0,15.211,0.913,14.755,16.804v52.684c0,0,0.456,29.742,23.845,28.838 c0,0,23.613,0.224,22.709-28.158v-53.82c0,0-0.913-15.667,15.439-15.891c0,0,15.216,0.223,15.216,15.891v54.956 c0,0,1.36,55.86-53.364,55.404c0,0-54.272,3.633-54.5-56.084L380.184,558.518z" style="fill: rgb(255, 255, 255);"/>
      <path d="M624.521,572.378c-12.715-31.791-44.282-30.654-44.282-30.654c-16.347-0.456-27.25,7.713-27.25,7.713v-38.368 c0.228-19.076-16.119-18.396-16.119-18.396c-16.58,0-15.443,17.707-15.443,17.707l0.004,99.238 c-0.456,25.205,11.583,39.96,11.583,39.96c15.667,22.933,51.543,17.94,51.543,17.94c45.19-6.586,45.414-53.587,45.414-53.587 C631.331,587.813,624.521,572.378,624.521,572.378z M593.634,635.047c0,0-8.63,12.491-29.747,5.225 c0,0-16.124-3.865-13.399-43.378c0,0-2.268-28.838,24.982-29.742c0,0,22.704-1.592,26.338,29.062 C601.808,596.215,606.125,619.148,593.634,635.047z" style="fill: rgb(255, 255, 255);"/>
      <path d="M950.592,539.769v-32.144c0,0,1.493-14.574,15.693-14.574c0,0,14.953-0.37,15.697,16.072v30.646h14.949 c0,0,10.838,1.868,10.468,11.208c0,0,2.613,9.719-11.587,11.217h-13.081v65.398c0,0-3.74,21.306,21.302,14.204 c0,0,13.455-4.114,13.825,9.34c0,0,2.246,11.217-17.191,15.323c0,0-23.914,4.864-38.118-3.736c0,0-12.331-5.983-11.587-30.276 v-69.513h-8.97c0,0-10.089-2.238-9.715-12.327c0,0,1.119-10.089,11.212-10.468L950.592,539.769z" style="fill: rgb(255, 255, 255);"/>
    </g>
  </g>
  <path fill="#00749A" d="M 79.71 191.631 L 70.994 191.631 L 70.994 192.61 C 73.72 192.61 74.158 193.227 74.158 196.886 L 74.158 203.479 C 74.158 207.137 73.721 207.806 70.994 207.806 C 68.901 207.497 67.489 206.312 65.541 204.046 L 63.302 201.47 C 66.32 200.903 67.927 198.894 67.927 196.627 C 67.927 193.795 65.639 191.631 61.354 191.631 L 52.784 191.631 L 52.784 192.61 C 55.511 192.61 55.949 193.227 55.949 196.886 L 55.949 203.479 C 55.949 207.137 55.511 207.806 52.784 207.806 L 52.784 208.785 L 62.473 208.785 L 62.473 207.806 C 59.747 207.806 59.309 207.137 59.309 203.479 L 59.309 201.625 L 60.137 201.625 L 65.541 208.785 L 79.71 208.785 C 86.672 208.785 89.691 204.87 89.691 200.182 C 89.691 195.494 86.673 191.631 79.71 191.631 Z M 59.31 200.027 L 59.31 193.177 L 61.305 193.177 C 63.496 193.177 64.47 194.773 64.47 196.628 C 64.47 198.431 63.496 200.027 61.305 200.027 L 59.31 200.027 Z M 79.856 207.188 L 79.515 207.188 C 77.763 207.188 77.519 206.725 77.519 204.356 L 77.519 193.177 C 77.519 193.177 79.661 193.177 79.856 193.177 C 84.919 193.177 85.844 197.092 85.844 200.131 C 85.844 203.273 84.919 207.188 79.856 207.188 Z"/>
  <path fill="#00749A" d="M 25.666 201.935 L 29.026 191.424 C 29.999 188.386 29.561 187.51 26.446 187.51 L 26.446 186.48 L 35.599 186.48 L 35.599 187.51 C 32.532 187.51 31.802 188.282 30.584 192.044 L 25.033 209.661 L 24.401 209.661 L 19.433 193.537 L 14.37 209.661 L 13.737 209.661 L 8.333 192.044 C 7.165 188.282 6.385 187.51 3.562 187.51 L 3.562 186.48 L 14.37 186.48 L 14.37 187.51 C 11.498 187.51 10.718 188.231 11.741 191.424 L 15.003 201.935 L 19.921 186.48 L 20.846 186.48 L 25.666 201.935 Z"/>
  <path fill="#00749A" d="M 42.22 209.454 C 36.864 209.454 32.482 205.283 32.482 200.181 C 32.482 195.133 36.865 190.961 42.22 190.961 C 47.575 190.961 51.958 195.133 51.958 200.181 C 51.958 205.283 47.575 209.454 42.22 209.454 Z M 42.22 192.558 C 37.741 192.558 36.182 196.833 36.182 200.182 C 36.182 203.582 37.741 207.806 42.22 207.806 C 46.748 207.806 48.306 203.582 48.306 200.182 C 48.306 196.833 46.748 192.558 42.22 192.558 Z"/>
  <path d="M 101.716 207.755 L 101.716 208.785 L 90.567 208.785 L 90.567 207.755 C 93.829 207.755 94.414 206.879 94.414 201.728 L 94.414 193.485 C 94.414 188.334 93.829 187.509 90.567 187.509 L 90.567 186.479 L 100.645 186.479 C 105.66 186.479 108.436 189.209 108.436 192.867 C 108.436 196.422 105.66 199.203 100.645 199.203 L 97.869 199.203 L 97.869 201.727 C 97.869 206.879 98.454 207.755 101.716 207.755 Z M 100.645 188.334 L 97.869 188.334 L 97.869 197.298 L 100.645 197.298 C 103.372 197.298 104.638 195.288 104.638 192.867 C 104.638 190.395 103.372 188.334 100.645 188.334 Z" style="fill: rgb(255, 255, 255);"/>
  <path d="M 141.884 203.943 L 141.64 204.87 C 141.203 206.57 140.667 207.188 137.209 207.188 L 136.528 207.188 C 133.996 207.188 133.558 206.57 133.558 202.913 L 133.558 200.543 C 137.356 200.543 137.648 200.903 137.648 203.582 L 138.573 203.582 L 138.573 195.906 L 137.648 195.906 C 137.648 198.586 137.356 198.946 133.558 198.946 L 133.558 193.177 L 136.236 193.177 C 139.693 193.177 140.228 193.795 140.667 195.495 L 140.91 196.473 L 141.689 196.473 L 141.348 191.631 L 127.034 191.631 L 127.034 192.61 C 129.76 192.61 130.199 193.227 130.199 196.886 L 130.199 203.479 C 130.199 206.825 129.826 207.668 127.676 207.788 C 125.633 207.458 124.231 206.279 122.312 204.046 L 120.072 201.47 C 123.091 200.903 124.698 198.894 124.698 196.627 C 124.698 193.795 122.409 191.631 118.124 191.631 L 109.556 191.631 L 109.556 192.61 C 112.281 192.61 112.72 193.227 112.72 196.886 L 112.72 203.479 C 112.72 207.137 112.282 207.806 109.556 207.806 L 109.556 208.785 L 119.245 208.785 L 119.245 207.806 C 116.519 207.806 116.08 207.137 116.08 203.479 L 116.08 201.625 L 116.908 201.625 L 122.312 208.785 L 142.323 208.785 L 142.615 203.943 L 141.884 203.943 Z M 116.08 200.027 L 116.08 193.177 L 118.076 193.177 C 120.266 193.177 121.241 194.773 121.241 196.628 C 121.241 198.431 120.266 200.027 118.076 200.027 L 116.08 200.027 Z" style="fill: rgb(255, 255, 255);"/>
  <path d="M 151.768 209.454 C 149.82 209.454 148.115 208.373 147.386 207.703 C 147.142 207.961 146.704 208.733 146.607 209.454 L 145.681 209.454 L 145.681 202.346 L 146.656 202.346 C 147.045 205.746 149.285 207.755 152.157 207.755 C 153.715 207.755 154.982 206.828 154.982 205.283 C 154.982 203.943 153.862 202.913 151.865 201.935 L 149.09 200.543 C 147.142 199.564 145.681 197.864 145.681 195.598 C 145.681 193.125 147.873 191.013 150.891 191.013 C 152.499 191.013 153.861 191.631 154.689 192.352 C 154.933 192.146 155.176 191.579 155.322 190.961 L 156.247 190.961 L 156.247 197.04 L 155.225 197.04 C 154.884 194.618 153.618 192.61 151.038 192.61 C 149.675 192.61 148.408 193.434 148.408 194.722 C 148.408 196.061 149.431 196.782 151.768 197.916 L 154.445 199.307 C 156.783 200.491 157.708 202.398 157.708 203.943 C 157.708 207.188 155.029 209.454 151.768 209.454 Z" style="fill: rgb(255, 255, 255);"/>
  <path d="M 166.764 209.454 C 164.816 209.454 163.111 208.373 162.381 207.703 C 162.138 207.961 161.7 208.733 161.603 209.454 L 160.678 209.454 L 160.678 202.346 L 161.651 202.346 C 162.041 205.746 164.28 207.755 167.153 207.755 C 168.711 207.755 169.977 206.828 169.977 205.283 C 169.977 203.943 168.857 202.913 166.86 201.935 L 164.085 200.543 C 162.138 199.564 160.677 197.864 160.677 195.598 C 160.677 193.125 162.868 191.013 165.887 191.013 C 167.494 191.013 168.856 191.631 169.685 192.352 C 169.928 192.146 170.172 191.579 170.317 190.961 L 171.243 190.961 L 171.243 197.04 L 170.22 197.04 C 169.88 194.618 168.614 192.61 166.034 192.61 C 164.67 192.61 163.404 193.434 163.404 194.722 C 163.404 196.061 164.426 196.782 166.764 197.916 L 169.441 199.307 C 171.778 200.491 172.703 202.398 172.703 203.943 C 172.703 207.188 170.025 209.454 166.764 209.454 Z" style="fill: rgb(255, 255, 255);"/>
  <g transform="matrix(0.410005, 0, 0, 0.43379, -48.699516, 170.711044)"/>
</svg>